<svg width="100" height="100"><g id="layer1"><g transform="translate(50,50)"><path d="M63.410439416452846,0.6431658673409402L63.03068591741794,1.289431804078049L62.861465449555,1.7554255410123005L62.862007591290876,2.70733579374064L63.447429563073,2.285641193997435L65.05617055002222,1.4782600486560113L64.54575186079956,4.76468501416457L65.51206585610953,6.03144004960086L67.08625229154632,7.079642969651104L68.05393748425558,7.6060137295044115L69.34308441561188,8.668587704511083L70.40627622626698,8.119487242358446L70.6900071197615,8.757669109412745L71.1440188120655,8.706487631683558L70.96446109718909,10.565452691709652L70.2012851770096,13.248956218685635L68.12760605053154,14.343767049982489L68.0463175106429,16.14646469751642L67.67838620087286,16.371998372193048L67.15034837622443,17.804305223320625L66.8585123245416,18.69775362186374L66.54545347080375,20.30414695127547L66.9384332903337,20.284008125785476L68.53536106119736,24.01387525111204L71.02709725839622,23.821596441177462L71.87840903875258,24.00669719081816L75.33489933896362,25.248790141738937L76.84780044491299,26.33041255257558L77.55996709755755,27.00384146885881L78.28363159019773,28.081017725749916L78.90538893220537,29.311553763725897L79.43953563285231,29.548446840935867L80.30050697539309,29.30539359973227L80.57455892284452,29.59604215012041L80.73456132005958,30.086084010452396L81.3436494271532,30.13235087456269L81.73007767542049,32.11014093105405L81.81179710554079,33.11361704373667L82.31659292701625,34.23042627320683L82.38292434807045,34.61561059428095L82.34887752549412,35.42801097404299L82.01515017113616,36.566158356070446L87.85684580058023,38.15144896443417L90.73684513453418,38.53002776776157L90.68636879068936,38.74741956088474L90.14037603937231,39.52992790123426L89.23126051591453,39.64349926700561L89.08717129670913,41.82474654840007L90.04269119342143,41.64603224606799L92.00329028283022,41.69894910063158L94.49572904524894,41.90417772980254L94.78840274360073,43.068453726189546L92.25201108032616,44.92424043259962L90.96948925484912,46.255597791372566L90.38081208868243,47.07968385361164L89.69042489782032,48.66337930590089L89.19511443458168,50.93133393731296L88.87143701876448,51.851332106340124L89.1984524896493,52.00864327461022L89.94126927459047,52.15640632777104L87.18546064281554,55.96701807173122L86.92844988829074,57.421149473811965L87.42746270703356,57.66674070619047L86.57572611879141,58.88910901741474L87.21345776101862,59.13797641471683L87.5549696805806,58.726980783525505L88.2502727134638,58.95256302894268L88.23561909142109,59.480597508863866L89.01767444453844,59.53970727122578L89.06993157358556,58.00490107295809L89.59472866658598,58.065976783882434L90.14474442522851,57.594276060157426L90.65684839705273,57.40983250605677L91.47959436884139,56.63772995464387L91.65390650869358,56.351146420114674L92.98068596299072,56.55250830420664L94.14090499880604,57.0976253654153L94.64317239289039,57.62478464852393L95.03831743370301,57.889413532058825L95.84592076435501,58.01452467220406L96.25583630081383,57.87490098341004L96.89825368047605,58.19153550305782L97.56830199196293,58.82145290426888L98.31649622376335,59.24845571816513L98.981890546042,60.161862110466245L99.70684032723784,60.469279810684384L101.46471749977582,60.74180286289629L101.62866205776072,61.52767732980101L101.52371923699002,62.28630598266318L101.74532649910861,63.342731134969654L102.79445229942212,63.57642168442726L102.95529225400787,63.146193152397245L103.00084995428278,62.568352654459886L102.7260658989112,60.719517277935665L101.99297296097393,59.9499793983432L101.8776800141568,59.583910659348476L102.24997650439173,59.60016511875074L104.37407110456388,61.28544407826848L104.8895290026453,61.30503180720552L105.62160006930117,62.91432416038333L107.09990226975196,64.62675121869506L107.64114979948454,64.7743458458117L108.08939440298718,64.58015380737743L108.81343194695546,65.07356756992522L111.3074985117546,65.4856226046104L111.52726121881778,65.6912875771468L111.46236138566701,66.75296624475232L112.32131367281636,66.92258183918057L112.08308094875565,68.00738055428883L112.57275271941717,68.09616209104388L112.41880329255355,68.72846047713392L111.14626100903206,68.49668668337654L111.48119227466395,67.19970576246305L110.83908821151908,67.24338218247067L109.70882382581158,68.21392563599147L109.54440513135751,69.37922920831261L108.64389642144533,69.33941735722146L108.58537075519007,69.85221799666215L109.00708705976604,69.90692865664641L108.90611108763505,70.50801603836408L109.35866353218262,70.6207876034714L109.24183412749426,71.40665309927681L109.09864160982897,71.56522133655017L108.63476380938846,71.4184702149123L107.4910372395575,73.1766209860416L107.62036894143466,73.45024587990338L107.29650449494011,73.74510376505168L107.13411638194566,74.28406816023198L107.25411637609659,74.7118097639468L107.87097484642118,75.93674460043076L108.4232494549351,76.23156143837696L108.54126801058919,76.70294968266899L108.71035845361621,76.94736407762502L108.15649123015874,77.39163221300805L108.04684565918615,78.5430837139811L107.42813181912607,79.1209399409654L106.94352083783633,79.04293679849252L106.35223512792618,79.23063488393746L106.09330871418615,79.5127913381657L105.66001756848891,79.31864785986909L105.40850116880847,79.49041958823L105.03678380759311,79.47409838583371L104.88760470365878,79.24353047434306L104.2602983058373,79.66920644126003L103.57312208719577,80.4089719767544L103.02743925254299,80.5372076590229L102.81537250355086,80.88216627494512L102.5735642001423,80.97377739731746L102.4415513731642,81.38933507966794L101.84317634423314,81.9218662129515L101.78092273153516,81.38874756681253L101.62995080817154,81.4230307593898L101.51611596040084,82.01067330996557L100.3895649471574,83.2352605685337L100.20855157637607,83.33635412262629L99.9725441165815,83.13522873491638L99.84799166658831,83.16290658325488L99.66848663075461,83.72831085097096L99.87927577420396,83.7238551766095L99.93529529500029,83.9959224175127L100.23044387937261,83.88006305827003L101.12572746014348,84.54967171805947L101.78031195037101,84.37488130507336L101.47354575715099,85.52743414768702L102.10746972382731,85.413544042598L102.01839760717075,86.22292572706829L100.65835631471828,88.2248803452967L100.3719971534656,88.43627458490664L99.86142069459083,88.49125330921743L99.52892427172765,88.34556973630788L99.08722985564782,87.99444416991173L98.58384844306647,87.88253179469939L98.08631696096427,88.05136993071937L97.69687243447106,88.33297712945387L97.17209271175034,88.5392592442895L96.97144252777207,88.72870103712376L96.24458303288247,89.93483865555754L96.10922561405187,90.3972271747698L96.06514109263571,91.0050334271109L95.83569559274792,91.09985901313667L95.57239389314782,91.34986172489516L95.36732839895285,92.14141949993791L94.89587619265421,92.49677479067395L94.79419762464249,92.77823154989164L94.50970123443994,92.95380862010461L94.32502762401191,94.03197003485548L93.86690030033196,94.64918013269926L93.4803525930729,95.49807362733918L93.59293842161924,96.41472514669658L93.01309858866944,96.76201973343268L92.48804982225784,96.59796534947236L92.3389225387923,96.275878632694L92.00857139993104,96.25626795525204L91.68984859191823,95.70918499076834L91.18934291335927,95.16831469084718L91.00674583041382,94.792661620344L90.89956604599729,94.24915068893097L90.96765045155507,93.92543219565414L91.15402701061294,93.88441334888557L91.18725197258027,91.51431515357399L91.30910079487603,90.49902393766206L91.72246454344304,89.7216798729969L92.58246107414561,89.04515189318226L92.78702737970252,88.58012083317044L92.7347832028272,87.64109468661263L91.84307081091447,87.41428825176263L91.93596929989735,86.31945219686168L92.13413548656445,85.5740565852866L90.39347560983333,85.89055991760506L89.44376118184982,84.31608530028643L85.7801691292384,86.26292399112754L85.79132809437579,85.99833277331527L85.54862235324663,85.48363849816451L85.66437939963498,84.93006760123171L85.53787265857454,84.70336915591724L84.71254419897377,83.5127767793856L84.33785986020666,83.2034984812617L83.96744057774549,83.09775443040598L83.7328048424647,82.87677265178354L83.51189242593,82.02312412394167L83.50827478636711,81.25325159785643L83.30233028630937,80.77601316903201L82.38728890224775,81.28579184867704L78.4403961250714,82.45876182199208L73.33676148568475,82.2515379811939L73.18464195079741,81.58110271724036L73.235579328742,80.96795392954664L73.81074995928702,78.91410492477371L72.54068563770534,79.50777715131335L72.04515231302457,79.56711029292819L71.49752859340788,79.26901069759697L70.86137557781467,78.68662965110343L69.75909356718466,78.69788818626694L64.78404793925893,79.84333847805829L63.6015565432308,80.25347066005452L63.19536008637033,78.2313328979235L61.586133780507225,73.54858651277937L60.53616578395031,73.20732401386158L59.71255445516954,73.49861509631774L55.205665132541526,75.50934180350123L52.935445950542544,76.27114618923042L52.8761717939833,77.05417752768881L54.47354869350056,82.87680769087456L54.44673275444711,83.16400238696951L53.32154598565239,85.90106595943871L47.655492663914174,85.40893394524574L47.42791211640315,82.37344826346089L45.70918107193211,82.46802456690784L44.50228470084403,82.4078410086695L44.795671938766645,80.87493418654049L42.53838636200226,79.55876716679086L41.38587556800758,78.55100890307949L39.715587801622405,76.91295538789564L39.75401558904605,75.78401535883495L34.300019113875805,79.23495707903021L31.95233603514498,75.6666443859067L31.659619955798462,75.12241932546203L31.644110240622922,74.58360082623767L31.53028224523223,74.40156177209428L29.983115162441663,75.71007619505144L28.455122425079026,77.19959412962089L27.859822773158612,77.59414954810018L27.20029635239962,77.78547155260276L26.516195622375562,77.81112166969615L26.12937603840146,77.7167120346785L25.180505631269625,77.26900885454597L24.624550750210346,77.23264401827691L24.03689313660152,77.35731928720816L23.45182890856904,77.68808851556969L23.29003485479916,75.69168542326224L22.74554441049486,73.15675216760246L19.17589247899923,73.34770047870916L18.64239589557792,73.28395127244585L15.651233806875553,74.5706315137013L14.487207690614923,74.65134137988025L13.97867670584992,74.78971728571923L7.65690412687627,78.28451353884157L7.675159809058641,79.20162464358873L7.391915197470553,80.14892125936603L9.753208240773802,79.74824567308133L9.781982970821446,80.30014193877832L8.800460181128528,80.74574203159318L7.577134340484463,80.85060213117322L6.574845910496151,80.59293584140141L5.31790305680579,80.41881345705224L4.915197101848662,80.19322069885311L4.89077195642767,80.0868061102392L4.7363638862043445,80.09668352995686L2.9277109006566207,82.13955547385558L3.261076168128511,82.3651346505576L3.161579719508154,82.85052385043855L2.7078086475353302,82.76217482966058L2.0279777841537907,82.17419628669631L2.0926462718744006,81.51251537390817L2.956063594591342,81.56150402620369L3.951730440778647,80.42620688212446L3.9246670058250857,80.17813315840431L3.352144295787184,79.88984869996966L3.617517493843934,79.50555478725255L3.127838489275746,79.26915490468309L2.8892274384315897,79.55146283857175L2.192430277668791,80.01038785646597L2.0304200528794354,80.08952323314043L1.64074258341725,80.00091981017795L0.9762825951006562,79.33620524726393L0.35359438211298766,78.50565702850872L-0.6700591551530124,77.90022065144149L-0.849856073229148,77.46645925468692L-1.2247795283446976,77.03089152007487L-1.0130100575602228,76.65304114157698L-1.3165207081942754,76.39700303208883L-0.5023980459086488,76.24205699228332L-0.6814370444453743,75.35004492567532L-1.6769577487675633,75.51117427089594L-1.7112587049196009,75.83797743521063L-2.138003368248974,76.18387607628574L-2.555117415722634,75.94088517741693L-2.556166553293224,75.53402645445385L-3.185821926655535,75.54517819507055L-3.1152224412489886,75.94677554519694L-2.959967594175396,76.13251026028229L-3.173124746646863,76.42362323118141L-4.335210206410011,75.72852244637215L-4.737120956098352,73.4972265481556L-3.4836821192102434,72.87289877546573L-3.1518721680267845,72.48397762086461L-2.921052679182594,71.95245658503518L-2.7712402768379434,71.86781536438502L-2.6243083510621545,71.8648486142647L-1.8947810782101442,72.22601924722585L-1.735723494423837,71.88004207828635L-1.5035665523446369,71.7738088918286L-1.3212078629912867,71.46136417733578L-0.5127350096818191,70.7459468925299L-0.6077506787482889,69.85927792346774L-0.3276501951618229,69.6923178627294L0.27131372235726303,68.81719155810788L1.0816681368673926,68.28709212716603L1.3441864395849734,67.8430403352977L0.7212555436917683,67.22044743431434L0.6153166582307676,66.51324817178647L-0.02777525467263331,66.0213271561006L-1.0911179848098982,64.62025460202494L-0.6235788611361386,63.61377531827202L-0.5052561051847988,62.16176378634373L-0.8032882424149648,61.792864020668276L-0.7185880269898917,61.071551867747985L-0.8161587080453501,60.19676653075658L-0.6695465148177391,59.90552318071241L-0.299216614983834,59.542328852528954L-0.1975588776067525,59.06900311935533L0.25166245539594456,58.36828215619062L0.3576638289036964,57.91827738412758L0.40550601286940946,56.499214097950244L1.4992447510558122,56.26755048799714L1.712107186650428,56.14107640893235L5.665898394913256,51.05507312349255L8.898157038574936,47.56774272716757L5.581305393521234,45.53007152790815L5.219534832903264,45.42410006759383L5.071613581493239,45.02645799406491L4.805811412517869,44.82845887602889L1.9856224571612984,45.43428558324558L0.3347538889029238,45.59719706283977L0.5372925766391745,44.17197902764747L0.6430215508553374,42.13908011157582L0.743191301033221,41.56696252215079L1.4970235584301008,39.27280377711395L1.6821491292002975,37.90825279253295L2.642867728323381,34.30358374467505L3.1516712681104764,35.06318447274316L3.6339311874453415,35.33881132092756L4.53545413689335,35.41775292339844L4.951270161840057,35.533474242191005L5.269124111437577,35.29181463847635L5.527522068441158,34.7690448972935L5.319796490945464,33.23487474274043L5.6577591316040525,31.789983076439967L6.046848272133957,31.07543337199786L6.541173529367825,29.586874076032473L6.544353345099353,27.99509113629574L5.9565197191841435,26.562668986764038L4.239598493112226,27.34848570673421L2.9003084736668825,27.600134852869814L2.610630295759165,26.615359679157336L2.2029601528665808,26.624001576839873L2.35835337430899,25.37595595003586L3.1579532747364283,25.368464718378164L3.695266117274059,25.26887045431795L5.4762804511365175,24.42828688020927L5.834047331496095,24.23181215745717L6.70429726224711,22.980983137811563L7.264828373015462,22.45575217973237L8.515153465687035,22.083882061693657L8.803834881656712,22.333219597023344L10.183860597519924,23.109996639619567L11.947407075145748,23.619119057453645L13.38481841792236,24.65162179775689L14.722213210648079,24.95931234152704L15.90891808940978,25.57694263108351L16.0378578924242,25.08538145598868L17.77818902604713,25.372081004252323L18.05072440506501,24.415353178732403L17.862498877154394,23.71551937901495L16.27433588754502,22.159739893722872L15.11604687461795,20.477592951998304L15.032794392662709,19.934044788371466L15.09409226501657,19.73975994616376L15.945933041903572,19.163429529882706L17.390677450188377,16.15179054055625L17.716789695658008,15.985377628077913L18.18565983307235,14.748058518478501L18.362321148025785,13.667967153651261L20.05193613489746,13.901545391192485L22.3568367669709,13.690046961350163L22.86699275592173,13.921312489157572L24.758847434301515,13.782749532008893L25.297222290010723,13.810771580028813L25.970465303598758,14.027603739223196L26.13648597993597,11.87324980107951L25.966368306364075,11.178466878875042L25.70330843480542,10.689777483688886L25.600725727666486,10.051833527424606L26.683000426895433,10.312645444088048L29.141027272764404,9.895834402748733L29.316006191753786,6.630580985192864L28.97361786504098,6.602053023327244L29.218509907647785,4.2889345294661325L31.262297155784836,4.747303063271829L33.52611557050841,4.714692495714189L33.95694625167698,5.269755572944632L32.2715974961925,6.393637469649548L33.644664665628625,9.125417170616856L33.7986676953451,9.14943596226476L33.82142648421495,9.36514202393846L33.74846488457979,9.856709818108357L33.422572210879025,10.346336771721326L33.57760191775924,10.952708112108667L32.74881957355183,11.226375087822817L33.0603217327448,11.859384547971786L33.51065009330887,12.370888958890646L33.65590091339118,13.23296433385076L32.61840052590878,13.501179908551421L32.62852567431537,13.845700222536834L34.49589451224392,13.609310626563456L37.24316357780299,14.457614572427701L38.572753784430915,15.251536104346087L39.09045625894305,15.077535767013615L39.917880512560714,15.037167231423155L39.99221257925501,14.649370335389904L41.08805910823094,14.67641460017694L41.34454597843069,15.05120025389806L41.878256609662,14.864994550569463L42.36662593962001,15.049612000602792L42.985086926321856,14.675294019734793L44.02646656629622,14.245082154146075L45.06713766376561,13.636368921808753L45.29940908414346,13.30649945030018L45.18085608056117,12.838654738363402L45.54579506153186,12.350938559378847L46.708854933387556,11.325218575699182L47.23708192688946,11.219188437564299L47.68375477827112,10.954678209338454L47.88723537349006,10.571884237495397L47.89130256104545,9.87579783291767L47.97074191057436,9.627857443843823L48.307864639250056,9.195941323741863L48.36908526523666,8.820432179576528L48.53151017608343,8.498090466975555L49.085146170522876,7.8805475558783655L49.40414873720829,7.911277727669585L50.88027783641792,9.572065570646373L51.89792925543179,9.23713190312992L52.03549762420016,9.545450531162714L52.646409429171854,10.35402098074519L53.91152119215258,11.525106012944889L54.60860880013479,10.939546604889983L55.36325229788645,10.985242764079885L55.55450421911155,10.85054421267705L55.49533633423653,9.807672728691614L55.611284156286274,9.035763023752224L56.62260409465216,8.734583490348086L56.80298853809927,7.644186352668839L57.83218427927795,7.35154840449286L59.1791299123347,7.379874354122876L59.07756528536447,7.787415917146063L60.104513911530375,7.937569847541454L61.02771029951691,7.136068556281316L61.875640080316316,6.794982963941948L62.49505036039682,6.229769915813449L62.59008697499621,5.922918077507347L62.555940775066574,5.4891196266362385L60.53818477445611,5.244294061585606L59.27728354191822,4.095461645634714L58.53240810304351,3.7313945545884053L60.04569752673751,1.9432462666536594L61.172125142141795,2.4575584403319226L62.81771509434748,0.22158205299092515Z" fill="#000"></path></g></g></svg>