<svg width="100" height="100"><g id="layer1"><g transform="translate(50,50)"><path d="M8.146710889893711,41.38238300293051L8.372124415830058,41.69083659546777L9.323356878159075,41.665006085568166L9.548735756397491,41.77948522647603L10.367760834861656,41.5056508290545L10.589491149923788,42.16551115657785L10.989670913553937,42.07081998710419L10.934686759800798,43.13917724456951L11.35856670557223,43.05172795791441L11.498559172589694,43.819558890070766L11.952157637854498,43.707480470549854L12.619391042686857,45.122466398262986L13.686877227242576,45.348052459652536L13.818938623443046,45.49651897128206L14.460264985596723,45.329987912808065L14.964418553110818,46.00314411537511L15.498465684131133,46.03083816747676L16.714662118062733,47.53669798550254L18.932366629322587,45.859788649137045L19.95798948386232,46.673125052057L21.039409399055785,44.778518655226435L21.652398536057717,44.92496140298135L24.628013651304855,46.15518746859925L24.661207049486393,46.63125236573251L24.39543200833714,47.272269824694376L24.18285311872478,47.340672638365504L24.266248515317784,47.6345964146949L24.064922442452826,47.93590368841433L23.09346860634969,48.67644835249848L22.951745509863485,48.65393962847156L22.71708582200563,48.877515003647204L22.80467307589197,49.02980945332092L22.655970929756222,49.141103330439364L22.29823118578429,49.35478889838123L22.137619210802995,49.30920460985544L21.60981228831497,49.71597738312812L21.496653179691066,50.18787552581125L21.70117692595909,50.51522523683889L22.134438544026125,50.69513565330817L22.18970363850758,50.91111825603912L21.519471938725246,51.465636770939454L21.322108994119162,51.81394651105256L21.533307780976884,51.99701364504472L21.5191653227821,52.25669666128488L21.328985786185285,52.47907382779158L21.366524465901648,52.716440961427L21.529230676703264,52.743613357724826L21.725245061502164,52.544664290284345L21.99164945190205,52.54032027622088L22.24483539136395,52.63061907205156L22.062550115748536,52.855391801105725L22.64699469345146,52.92395157399369L22.869270458105802,52.72957679470346L23.039197796929784,52.93468362136446L23.0761609208721,53.15110869266937L23.555659348854988,53.607441962063604L23.245500884483818,53.63646355286619L23.42638722595234,54.26554090485115L23.652811931894348,54.332980815108385L23.934952294499908,54.23136945348233L24.40899533441666,54.27667999953883L24.66668043214827,53.73311863190793L25.514742260351795,53.59069263326819L25.998552132896975,53.405338751192176L25.964261507733227,53.29098568966583L26.392182528532885,53.065180197205336L26.36840624556021,52.13859600595788L27.65361830482675,51.715240004938096L27.874589999525824,51.36380425098105L28.65662350347202,51.18658758037418L28.59587282417283,50.64851999941675L29.32007493228548,50.661427751392694L29.68160647962145,50.285447776264846L29.980754673122192,50.539777778254575L29.9515883161323,50.72913148502994L30.387291668353328,51.11357397617212L30.75940723907638,51.05171139551567L30.798275030410423,50.93546439012971L31.288521593500718,51.308065433697266L31.218812839651036,51.5482029268951L31.558063126835805,51.84081462915128L31.37950683534973,52.21990613779417L32.47496673902356,52.86788475405956L32.41695474959829,52.95054538961631L33.12973976204853,53.3463338382935L33.34824058089862,53.09986538598059L33.93059322267845,53.192561338557425L34.3497939491765,53.76080214613103L34.03166400302416,53.88928074485193L33.98060140827397,54.249351359052525L34.150880364910336,54.68501872721936L34.82774480211765,55.00842671809551L34.91820025552556,55.301588604106655L34.948411526355585,55.96903027840199L35.098339891970454,56.42872747349247L35.63578466074455,56.33666153512786L35.93587642727152,56.73095396577446L36.38998994073518,56.650315478003904L36.3921940559153,56.46439089297746L37.08095597980264,56.43147882501398L37.25134879055486,55.929729050043534L37.834405655864884,55.951862472204084L38.012894920678946,57.0418927208284L38.237791246305505,56.947279803638594L38.65868579759558,56.75092645780023L38.49074452334412,56.296886466720025L38.82909723933085,56.141856264110174L39.44250038751693,56.12403310439004L40.1701980459527,55.867754955650526L40.71331429566794,55.220662900777825L41.51145046951069,54.95747056639084L41.8168810688328,54.735229265823364L42.1369198231539,54.041252391303715L42.67650621065695,55.27713640159163L42.45532538660973,55.6334440398623L42.45778632661927,56.16231084196261L43.34727936252125,56.97052982312198L43.993779741413164,56.38132881592719L44.761676569286465,54.76270094202846L46.23768066496473,55.30556168957264L47.24978611240431,55.571731993601134L47.38311563303955,55.79370082444257L47.363139185919636,56.158142279313324L47.56796657183463,56.9648690165759L48.10549569560294,57.70593300578548L48.439813931762274,57.81569686063813L48.77949813012401,57.71327890465727L49.107666861310236,58.3310953543114L49.768234461105976,57.88590645076874L49.81759744169631,58.09416329406122L49.42705015256479,59.01978101716122L49.347992651539016,59.42742757506494L49.32207308539728,59.87305117008145L49.447867652319246,60.11085190038102L49.840585900562246,60.26372784916566L50.448074422642094,59.785881121470084L50.70594884367324,59.758778627292486L51.64358927387798,60.31751961219743L51.91915760574011,60.376398915834216L52.74288370833119,59.985140222825066L53.024432226663066,59.96537597292445L54.42842011350831,61.37437939564552L55.40805968937775,61.84334488635068L55.59375695282665,61.857299692777815L55.69998910058098,61.7108578178013L55.69595277945609,61.53821565774342L55.499012712489275,61.15548594640677L55.55815454599315,61.00490746754622L56.189050182579194,60.85137395895799L56.45688595214688,60.46818635343334L56.64089476666163,60.408908925201104L57.07149872055629,60.39883167505468L57.432193098975176,60.526509296312724L57.679463783466645,61.16722782239049L57.8063628767743,61.23493402955137L57.986786281600644,61.13388601200859L58.10403927844163,60.56056551816255L58.21826118700051,60.419179491027535L58.375996421321815,60.46523746710045L58.61674078657143,60.82607195109267L58.786058253493366,60.921593759681855L58.89949007863288,60.85875747352293L59.102959133435206,60.398600023896506L59.20346928815752,60.341299111925764L59.32902767398673,60.46402232752007L59.358835449588696,60.96325282439284L59.51570142474088,61.085245274754925L59.72270429620198,61.11708797022402L60.22161602101505,60.78621778966772L60.41946859307268,60.76070207441808L60.55151640352915,60.82570095562005L60.85074588538214,61.23494258211758L60.98734486014132,61.27104834702368L61.14478687504379,61.191514438807644L61.24826284004371,60.69445086304768L61.36395833530469,60.61587901826897L61.755435129163516,60.949736780477906L62.00151917529365,60.97809967360081L62.2230431784169,60.389329090839965L62.33619741838356,60.313440245932725L62.46788141988145,60.36276468961114L62.7710856070139,60.719625992884176L62.988644369380154,60.75651493352052L63.560190936727395,60.40054614782275L64.24247131072138,60.54985220347771L64.60521841307923,60.196075528585425L64.8034446142276,60.186323154137426L64.92046958497735,60.280503910644256L64.93155961346633,60.424210633847906L64.48909731863341,60.83213653088387L64.45339933663331,61.09991725386135L65.3500771628469,61.61079583214996L65.86527643356976,62.34235021168206L66.0581927277542,62.3301216451182L66.37525299591312,62.15020805049062L66.65338279825824,62.21195267499752L67.11441600162857,64.83401564598353L67.65862845606557,65.24036455673922L67.90849165017721,65.67428479020236L68.27408555514057,66.03233377642937L68.99243703447769,66.29350591339971L69.13092592469548,66.65143032130618L69.4001791605474,67.02210987152284L69.82798954981399,67.24796873790365L69.69047310334554,67.51787991058154L69.7802326758208,67.79839121120858L70.056838152502,67.91514755140997L70.42703675077269,67.89902352812896L70.48337957889908,67.96839363449726L70.39702248705476,68.89630927077087L70.71975572656152,69.56393166158705L70.87646717146276,69.68859627856L71.69026130943917,69.32259944714133L72.68450628482469,69.09127344199987L74.2560370473334,69.12454230743788L74.86866352943002,69.21829304979838L75.5011376741761,69.02653529482086L76.9007591604352,68.95404611244703L77.841459289348,67.8113785710575L78.29256958101928,68.03699559939014L78.71289306905851,69.25463387302261L78.89118448983868,69.41554747500959L79.27501049878174,69.4281559783085L80.2860776981529,67.7871852957378L80.2418743116516,67.6730402423309L80.8253685339771,67.38056131861049L81.10209864741614,66.53224406567642L81.10177485321879,66.27325280182049L80.80465168008391,65.92645896595604L82.53278955798964,65.08615596901836L82.71272091878973,64.58779762815175L82.8834781723915,64.76206869179623L83.23718072598558,64.3332572491654L83.43496823734768,64.4284664431616L83.57269677112959,64.0304275229064L84.12238134973131,64.10245429588576L84.13855533808078,63.75671496011819L85.02405669096493,63.78501043512006L85.1268843033397,64.08112616027029L85.35541956909128,64.14954927170584L85.32151979910691,64.3988399856662L87.0395973959553,65.17366888514152L87.71801513700939,66.66373371723421L89.49683999560489,69.00430031893666L89.82931807732871,69.05753009086584L90.24812002911904,69.24759675668793L90.43713184632247,69.42936921809451L91.15565141680486,69.73093030274686L91.41158246518785,70.502387945784L91.8487026222922,71.3328204882946L90.92359608737524,72.01357751899559L89.94608604875407,72.30061258652131L88.9138083104906,72.46073250593872L88.40994955239785,72.94194241585683L87.96444726538971,73.21798332045182L87.40249801957384,73.41281082139176L86.46266404776543,73.49796373214849L85.84869319772884,73.8220702683775L85.361764735816,74.23240273721967L86.17431981973846,75.04400572844861L86.81091555356966,75.17960050911461L87.1602913884642,75.54870680718886L87.27413125559929,76.00380147104079L87.52089340072416,75.95678866648268L87.59844619441424,76.92237150110668L87.8612793961995,77.02141373261293L87.84646468747724,77.68565505460901L88.14926593805285,78.82672715833178L88.32137926056203,78.82834850063591L88.51259481134684,78.62048278986367L88.7785330036686,78.6201470618962L88.9300184736137,78.75811646450893L89.25443014163443,78.68600116398193L89.45565392889534,78.45702939246075L91.02351114155545,79.13009915095063L90.95321848129856,79.38767980759258L91.38419981662742,79.93279421607804L91.63157170316322,79.7917793104516L91.7965260275098,79.95301084594757L92.57943597649432,79.35667195350106L92.79659384204047,79.39401347899366L92.99976523491705,79.89422011760507L92.23920201467035,80.18168075474932L91.9905109593733,80.63891017900278L91.75481053472708,80.83977108993349L90.57366984911187,81.20656807973319L90.26434220371743,81.37500762230957L89.11743687137846,81.62885410221133L88.6183156047473,81.81958409062099L88.27500946263763,82.23177852675872L87.86794765319792,83.20966582112669L88.62859613397518,83.9409457524198L88.38255465934299,84.51562185303919L88.42071245263332,86.72215455941296L88.2519323938352,87.1253196700236L88.59368272407528,87.77112909846073L88.77290708784403,88.37069020430681L87.79289620879968,88.72550769094414L87.94815268793445,89.17404976827493L88.42422155229747,91.64216000426131L89.3344864987912,91.45080742045138L89.64660147436689,92.43384715190587L89.95885640750589,93.04870964000293L90.51625320849348,93.00474452722119L91.16486186746943,94.38377696362295L90.58037073600963,95.0197819106179L89.77775186610666,96.37288956280463L88.81194294047918,97.25694129623844L88.60885193345621,97.38124232243536L88.21962161578676,97.19365123370335L87.05610301047636,98.07670732472616L85.90584987408556,98.4689283880034L85.87381664733925,98.92628474491357L85.24549625776535,99.0048184368352L85.13961558705137,100.03256931252508L85.28321173714494,100.4235297990599L85.19984952364848,100.79058572832764L84.63672065850415,100.87036804727722L83.81062084156588,100.70007324751714L83.4240410529037,103.98408607011697L82.27889108435193,103.81649339791329L82.19370259709399,104.21481601998858L81.412038900992,103.9237787938564L80.97124825195829,103.63326828351273L80.90376308018722,104.37033101127417L80.25081529679528,104.13659414708673L79.91794510615546,104.7515516723306L78.26219963130029,104.35181377198751L76.49497164871582,104.09557522478644L75.97785049321351,103.77038708956388L75.51563130655745,103.21965740584164L74.92411435330473,101.87604141061638L74.54977628346364,101.3024581860609L72.94237073557247,99.69932307549061L71.83570552928745,98.86012173361087L71.43702792311592,98.37315310971462L71.3009678161743,98.10737847378368L71.20381823292246,97.60062568679677L71.25123583297636,96.80353056928834L71.3970935582106,96.10077150046891L70.76392444862063,96.19841126259598L70.62982167003906,96.49112995359064L70.50016021962779,97.45190003589414L70.64036437931873,98.02032802058966L70.80448309113308,98.25937416505985L71.04518205459613,100.07287447604176L71.67640467994693,100.71897488652212L71.35345146971076,101.5323963776118L69.63969219521277,101.71417556326014L69.13158246262083,101.92124726265502L68.78593750199548,102.17686396535646L68.52367205082533,103.0176033281059L68.11687058823782,103.09719666595993L67.99876626165019,102.82071402010297L68.01676851791876,102.4628918978924L68.14800149141638,102.27991936116632L68.14867572434173,101.96160811728805L68.44530931100667,101.26091430351153L67.37239265934568,101.46773659770224L66.89527305520596,101.7785646277589L66.39345846405763,102.60914324151781L66.08102974330768,102.4883895248131L65.12887721391098,101.81603050791091L64.12380722837884,101.91199524540752L63.58513982430395,101.8016813587019L62.92285557872492,101.40721922478588L62.58248533847723,100.53020425920477L62.35903053946663,100.24536979671939L61.538462113943524,99.60144376189419L61.35761142275123,98.98253951383958L58.764250729657306,97.6124155648522L57.84718329954808,97.02564398107643L57.1426645602337,96.7367159433943L56.460603193962925,96.74224059068183L55.91454123865287,96.43921969274379L55.75435192843406,96.15846776908074L55.620402442322074,95.44116702237079L55.36539890852828,95.11563813349676L54.93746619991339,94.85683007444823L55.00343394405127,94.56028528770184L54.859953176109684,94.21645404787705L54.58932871989464,92.45008526472702L54.04264287905926,93.01650791745669L53.751966694782595,92.72834409551979L53.10928195278075,93.1978537299292L53.047086793963445,93.76326019649969L53.378109052059244,94.32715889185056L52.783306831022855,94.7250109002307L52.46131491954202,95.20515373140552L52.01031597120709,95.18454579755416L51.91656837172127,95.44865978453709L51.80245202575679,95.51767917372126L52.229527637071214,96.08513233086524L52.25955070911573,96.36371551101911L52.070113078812255,96.69644422702004L51.74846158926698,96.67254067173417L51.18381554438383,96.89830555702247L50.315921659769174,96.31607970188816L49.781412884693964,96.06784654736293L49.479937564829015,96.41962620501545L49.15895646673357,96.2811538654696L49.23632415852376,96.57686227160957L49.03475991832579,96.96800377963154L48.874122283305724,97.11019769385348L48.376865293929086,97.22133774110989L48.1403521815098,97.13045894979587L47.9857689740702,97.4160690870649L48.33282184553923,97.88272768125171L47.74534959036055,97.81336296142581L45.99554979775871,96.18781342255897L45.390322246554206,96.24949063899658L44.05275863534143,94.78367611288013L43.959640346020024,94.59537514208569L43.566135037712,92.76437009615074L44.044280490428946,88.53525584313684L44.05778855523272,87.58940489782617L43.829563482328695,85.81083483495968L43.3590365797902,85.75179938479778L43.42624519240985,85.5150369758012L43.35223608484307,85.36532361377067L42.83954026478341,84.6463568404306L42.49937885077202,84.37775262349714L42.382136212658,84.05926372465728L40.25322323813043,83.12662574657588L39.50493599137417,83.11900108812733L37.69242411434084,82.76682946266737L37.1988287049287,82.20424840067062L36.77616431155025,81.87508161546793L36.40116639800726,81.36702291675465L36.12624575342102,80.475246270551L36.46226925780252,79.21193326637876L36.98355129648962,78.04880626709019L35.43730780380724,77.11243020524853L34.37734311495524,76.33647225498498L34.2174567850991,75.88820444132398L34.210191511377616,75.59818040432037L34.411252090792004,74.56557901735141L34.65323845805483,73.91625804355135L34.807821261803156,73.8391572294895L34.86287355295963,73.53706184799012L34.28414237498896,73.65620998291706L34.06952185521072,74.147975082431L33.86566556103003,74.13219213781485L33.53933364071622,73.60175881533178L33.80130412294238,72.50207330213016L33.62277149631905,72.45688674519988L33.38295205629947,71.94512792707974L33.16700894922337,71.96888630377362L32.83395206081627,71.17439642266254L31.0495473134406,69.32593695045398L30.217865638946705,67.811544498285L29.665333845155146,66.4023997997192L29.34896859709147,64.73849863287978L28.8902479666408,60.56278515681697L28.423537554181394,59.53470799886418L27.82252748376891,58.93835501963622L27.254708571884066,58.58904988957329L26.856920695187682,58.455295730362195L21.598270448037056,57.50263289329814L21.11232801740607,57.306810054114976L17.210997375101215,55.15415571218L14.204798588466474,53.90379188847692L13.61770299306636,53.73617055858995L12.829206487912643,53.26754269311823L11.300495922685286,51.99379558091641L10.017382169459552,50.39996618137775L9.38731603365045,50.62310858930323L8.164819261620096,49.58219313550944L7.523088223221521,48.08527212061563L6.673575448495285,46.931925115371996L6.013124997559089,45.23871728249833L5.045933361247762,43.71362316152772L4.3109023251222425,42.93959910162994L4.154610917513082,42.102441499589986L5.540151584620617,41.6056223065043L5.564080022604912,42.00343475353657L5.860798836017011,42.04773383357315L5.970354409278343,41.845501917618094ZM14.233710371836423,-69.13204938313356L16.911749196550772,-68.2065929706423L17.28249455262562,-68.1503250980968L17.599520484351842,-68.4310378519076L18.31433116383164,-67.7281781664642L21.003152641058705,-66.77054446016155L21.408374884613067,-66.7044942507564L21.42960259537881,-66.39576268101337L22.36791303660766,-66.31454658091934L22.27490627445195,-66.03720563330717L23.01208209766355,-65.77887686344002L23.448908348302894,-65.2034449639632L23.75113189120634,-65.24302131627337L25.04014336977457,-65.97692316623579L25.598148389281278,-66.53060988276229L25.98728877546455,-66.78121756041583L27.145390412969846,-68.31265699983123L28.834068056512706,-68.9085521981342L29.16167906837927,-68.99096209499112L29.451334123645893,-68.80271419160272L31.814332925144527,-68.6063990809671L32.11208554778591,-68.51348046480234L32.23845348891382,-68.10425135101104L32.76615019056976,-67.78185395158653L32.93598861694113,-68.26466045451889L33.472523312742396,-68.2200451143708L33.632745210553594,-68.03638092131587L33.01421681202578,-67.25146951722672L31.420251435814407,-65.83123340944076L32.25104266235007,-65.09370069943907L30.60284822751578,-63.43436387258407L29.728705091988786,-62.34972469695276L29.933205631097053,-62.08275970748218L29.53003436556628,-61.14233624901499L29.184261744208698,-61.159924865463836L29.015653326828897,-60.534679278194744L27.866868267116843,-60.7219078094804L27.72837739974443,-59.74603956300598L28.597208011826297,-58.957234424351554L28.878024854377145,-58.38322050930583L29.18601243295484,-57.6725560267987L30.18187469370605,-54.25639813169073L30.378519672405673,-54.19010371256809L30.840110424053137,-53.75290631698408L31.13732623073065,-53.6680343338503L31.517021171300257,-53.7595422691993L31.95005081950444,-54.03460996254944L32.292795734317906,-54.02480724855559L32.886086693358266,-54.214114460801284L32.44448884803796,-52.29107690971068L32.6893014566931,-49.78639216152624L32.13515460929284,-50.14197009635063L32.04260869131326,-48.58999710318676L31.542434782051714,-48.16551749440259L31.737847256094483,-45.32786424357073L32.522795316001975,-44.47688015691165L32.80730493897795,-43.42327729471799L33.37544406033567,-43.651363938459326L33.5903558474331,-43.08406432517404L33.89486841889607,-42.60584646244024L33.2138446215979,-42.10279335375526L33.619266085932395,-41.06917182898724L33.21576812000194,-40.78725738862158L32.63518015769637,-40.64067773397437L31.401443773029996,-39.57530663703983L31.19015067113719,-39.50135427863643L31.403984023505018,-38.849964420451215L30.407661232732835,-38.394678955255586L30.276847367141045,-37.745279970095L30.45317258814748,-37.22250307065406L30.283286416186456,-36.04558604299018L29.881760922038893,-36.128294829910374L29.81115444555394,-35.81906147533482L28.81492378356097,-36.008090071098195L28.204769920542276,-34.76278438217378L26.56696973428575,-33.839070616086246L25.865819553226856,-33.77988785321395L25.8262767453773,-33.27994975731781L25.002102214820297,-33.31379456427567L24.302487539837784,-33.82037003683581L23.372320516494028,-33.57735122573649L23.25535978243238,-33.421377781362025L21.932818106751483,-34.006526828836286L21.176090078091192,-33.670314432516534L20.834978774875935,-33.637645182490814L20.424379180091364,-33.8483637289155L20.21603109638727,-34.57330907603682L19.93137812645068,-34.09118613462306L19.665820853510922,-34.42671123266882L19.48823142379274,-34.237741655022546L18.156500788266158,-33.56186954703662L15.629314066394272,-32.740744101167365L14.48620706228553,-32.50196880340263L14.382751917508813,-32.435927378222914L14.385834853856522,-32.32000203109601L14.009138773900986,-32.14383058094427L12.826622133485898,-32.201784027225585L12.528469850852389,-32.13841061999301L11.474412907518627,-31.42721295552292L10.594700094274003,-30.409387543271805L10.055472569631092,-31.099911766175865L9.367730726190985,-31.060000132014466L8.597478883518306,-30.07158966800307L8.352954042849206,-29.451202876847674L6.0599472481230805,-29.815248437787886L6.060319491494056,-30.607909836489853L7.61204028335851,-35.16429341654111L9.056076021921626,-37.41631673530719L9.89217058979716,-38.31996629286914L12.95472903086943,-40.605240934035464L16.53756747037619,-42.65237688313027L17.9728178462467,-40.64393092220598L18.072771527699615,-41.74675211120848L19.114706532931905,-43.468234392408704L19.478322240626767,-44.725951228256235L20.161034216305552,-47.92130917142458L20.42767589655341,-48.183895195787045L20.409064734503318,-48.495298454145086L20.576907054460662,-48.56620593800653L20.471377413694654,-48.90498053983356L20.600229998829946,-48.925654996042795L20.53167569312427,-49.309417658227176L20.381521798097765,-49.6156106129074L19.601362931773338,-50.668058493154604L19.418603722500393,-50.62133439203899L19.295016958057886,-50.869565168512054L19.505175906938803,-51.07514764021835L19.39934286609332,-51.29415099769176L19.20710981419552,-51.09106180045637L19.032551028457192,-51.11814604313986L18.719379979128234,-51.80959643584538L17.70743876093411,-53.425343126695225L17.68419043426138,-54.70822880054402L17.411914076391895,-54.740262639694265L17.346888049345125,-54.11035099603214L16.99804262070097,-54.550076358451406L16.002242755628913,-56.43589450829859L16.066144219050557,-58.425167991348644L15.83200597780251,-58.4264034470325L15.687709943295431,-57.08676822700181L10.591169440074736,-66.18376798254394L8.977250121386533,-68.20171647678944L9.367353524385635,-68.53224858482463L10.108836071014593,-68.74818096624222L10.644284412896468,-68.76825288470718L11.005506587250693,-68.5732043358239L10.904714507328663,-69.10696725485832L11.040799404591098,-69.17585496134961L11.561079675521569,-69.25069652284037L11.587790163553336,-68.74640559770341L11.90801771738984,-68.41131519430019L12.12334310185247,-69.03844303482947L13.009912330960333,-68.73175821715631L13.215653364993614,-69.52255966934354ZM33.039508916932164,-70.23174601784376L33.34743693298378,-70.15490822658467L34.13935273087668,-70.23833049882523L34.23885968165655,-69.74109750500429L34.56770790573364,-69.88157398049225L35.42203704587928,-69.36628668365847L34.869258719084655,-68.16003212564829L34.157984419028026,-68.12628287889311L33.843682051973474,-68.45941262463384L33.96246778267414,-68.66598001853163L32.848781241452116,-68.6907540909051L32.43488902077138,-68.89179544759645L32.65838210827451,-69.33898900161876L32.66054551920297,-69.67219082591691L32.44591444832872,-69.6059472837369L32.235713096190466,-69.99195030946248L32.44542391923915,-70.25374244123304ZM27.65767153332081,50.67769163522644L27.451693292314303,51.00256911223369L26.87319750308484,50.5564062503945L27.071266331104425,50.22909189383063Z" fill="#000"></path></g></g></svg>