<svg width="100" height="100"><g id="layer1"><g transform="translate(50,50)"><path d="M79.651236971878,-4.093769222474293L80.21554294247585,-3.847014024924647L80.5476062552807,-4.116133326246199L81.0451925871464,-4.01219431050049L80.62770753053701,-1.4077645162560657L78.95474474922321,2.4070467819728947L78.27707037471237,2.1689131733437534L77.80638483066446,1.7643506023196096L77.58640301529977,1.3615401343595295L76.98346887024923,1.6586639880606526L76.75220832883451,1.632565314483145L76.24848396848097,1.883898254367523L76.39034277384644,2.275365997560584L76.70342800602043,2.5415320281827007L74.73622531152637,3.652103470903967L74.68042322591236,4.283163869637065L75.19399074635885,4.781614810843166L75.11045620646996,4.96436369334333L75.31208745208528,5.0222996769007295L75.07335619941819,7.841241105512381L74.42073088030952,8.39510745507323L74.21206684409844,8.96806900636875L74.03241899753084,8.966268349613529L73.84024949311492,9.11016874688903L73.9916709678896,9.85086260456228L73.5236529307831,10.311147952699685L73.09460568844429,10.628274309307017L72.25905167823339,10.995034075484L71.72548757465529,10.9923443280004L71.88944102677169,11.573997422585308L72.244418755673,12.337361689689715L72.5551902024954,12.1558356513342L73.94903858290058,12.578029833048276L74.14296614394857,12.256791525822337L74.24656129160599,12.383374500748687L74.44322310468306,13.211028607378466L75.23434289032048,13.535581379652285L74.79832330616205,13.633635704665721L74.38717524026583,13.568324782376294L74.46522388765084,14.122638456872664L74.95177108907569,14.179194289008592L75.03440676997093,13.918282767190249L75.47524734776698,13.664173730105176L75.89135043943043,13.993137141176703L76.13935867150258,14.526680629154725L76.77085604566741,14.613810011740497L77.207712031352,14.280988005877589L77.34761727683735,14.269774958851485L77.62751499087608,14.864069501558333L77.44190719296694,15.285728028828089L77.58847618592608,15.589442751634124L78.24791220915495,16.0417420009926L79.16578537472765,15.820722682772612L79.98781744681264,17.275385230788743L79.92559162985049,17.542923189172143L79.9740305155974,17.759706472152175L80.2414528050349,17.946448533817602L80.87565913404,18.097252098426907L81.35492252051017,18.447183015759947L81.40350869318286,18.70629186487531L81.28645171890435,19.12483898786195L81.90437150306389,20.845011438384972L81.66565031636128,21.472625606234942L80.34078467965628,23.353638014359603L80.87657237752728,23.38047781291243L81.33379700235946,23.55314223022833L81.96916177534263,24.058350396615424L82.42187774230388,23.778782748731828L83.54641040065007,23.890634745062926L83.92088968622306,23.836250738981107L85.94787397141204,24.658888471265527L85.10462734099178,25.627422220530207L85.14702305129572,27.04996410541753L84.14488709241209,27.80482323187971L83.96270987157482,27.763234964051662L83.57111466630886,27.46335114718204L83.11556973780739,27.668773906891147L83.1626615694297,28.231779492090936L82.41523192874433,28.652551810533623L81.98217646361832,29.183102963990677L81.2985336639531,29.69882368619983L80.22160902273731,30.752870928256016L80.6100233589666,31.55748288455834L80.92066885932331,31.42929644936885L81.30950003255998,32.3501871662138L81.33708387680417,33.616946390788144L81.58334067782448,34.46342732695848L81.59632343996805,34.76730721489912L81.42744572293304,35.22761561389598L81.23492845447595,35.228415263831266L81.04373636705986,35.54804087296725L80.69392009671355,35.851893080405716L81.16204741608863,37.48817523399339L81.37001471729127,37.534989312685866L82.40284056352016,39.263756516018475L81.85690777702393,39.81547142265663L81.40986140377504,39.0782776202941L76.15080037110602,39.72397544965315L75.74023907731339,39.271472268283105L75.94710727690108,38.977281465833585L75.8275557642919,38.76912043732591L75.46918888615141,38.78661943447332L74.8148298806027,40.335071164441615L74.17665375400225,40.805614088490984L73.78678199897149,41.393853824729376L73.73785988204145,42.75167674156364L73.4000700546244,43.7489366427526L73.0881206092015,44.07789503559616L72.97676998447264,44.48246860240033L73.27526128146769,45.75644988651766L74.66074709997633,46.299105365851574L74.99372369028674,46.53254330231721L75.26252601215288,47.02094081674477L75.07394244804914,47.834911133651985L74.24165916535298,48.67699220469149L73.92601235117604,49.12270057089518L73.62430182037815,50.74162932514264L73.87034364029432,50.945598023488856L74.12377326331693,50.96693125940692L73.85299095638584,51.36905048478184L73.94143036159949,51.68732069361795L73.87393285851499,52.276315280216295L74.15137618402173,52.262061905383234L74.38520528181584,53.282270750924L75.16248657062079,52.85112913809644L75.46508982323189,52.815422627172666L76.36820619702553,52.96621864689769L76.3132580336162,53.75405543984198L76.15551164773501,53.76118663763555L75.98345711739444,54.52437735223975L75.77497205184568,54.62586552061657L75.70128493924517,54.96131027714182L75.87862461105283,55.36261307326458L75.60417918881922,55.65707462954924L75.46526272643132,56.34461844386897L75.72745804077977,57.80102308990354L75.97886087856386,58.10587724690413L77.03267900379046,58.36225736339475L78.11747340343118,58.96266363426548L79.81885647028867,60.21146431219677L80.35369371548632,60.251061289589416L80.39451275313627,60.02478566523496L82.19806743287108,59.78280823555906L84.00009271112094,58.07435686579993L84.49227983732044,59.444086167250134L84.49350023733791,59.75796042447473L84.69942036118277,60.17428999030926L85.16381584535975,60.348154400204294L85.48973080762767,60.86449201648611L85.39785168730077,61.608563989957474L85.65890354477074,61.763160792701456L85.85988824300671,62.03666104187323L86.24704597433765,62.14859227164925L86.329035645359,62.264316116068585L86.34007227008624,62.40140275116937L86.12286011550214,62.70548088981195L86.07114979621497,62.945641588348735L85.92450090790089,63.122872066202035L85.45729819124904,63.398890280454L85.39735617807014,64.23497873335145L85.74220610230327,64.30485101186605L85.80608361990971,64.50235721270838L86.06746900298776,64.76239005181014L86.03412988574564,64.98926054150434L86.28673062606799,65.01467195517944L86.69807437544318,65.28996219873443L87.92234816543146,64.903153922005L88.55142944739964,65.0274342357061L88.26356945690327,66.16740108632803L88.26782942302725,66.62082075167564L88.37391399663056,66.86823883362013L88.62176834548109,67.0492413794891L88.84605374701664,68.8674804010825L89.5064620676178,69.11619479230285L89.67643617302042,69.44061500158205L90.7959290735605,69.93312961680203L91.24782148731583,70.6141780834896L91.85160155966992,70.33806884224396L92.25396371999773,70.36835979289754L92.2075943807672,70.51279070392957L92.66792914422717,70.7333207519332L92.41350553294501,70.91599352017329L92.58352363406402,71.45566603770749L93.37680606755703,71.25017960678451L93.64701857909176,71.89757119119895L93.52898057302014,72.80439952965935L94.85301250715861,73.39307768217623L94.26767847079827,74.49884613809081L96.19515810914277,75.69161733293913L98.15229543569285,77.27695906686313L98.38482970151927,77.73724705311906L98.71922039306719,77.98126119036351L99.22682045622673,78.15368724888322L99.42211380296385,78.46657442591822L98.84028060959668,78.9975616570282L99.6241961645369,80.31743858279333L99.86926859814048,80.59591107285269L100.15066519923539,80.7083862651325L100.99654689926456,80.69824410142974L101.51257757551502,78.06594248487636L101.63575008556677,77.93919958372862L102.42668813370938,77.95036252664977L104.1338353873191,78.72580501181983L102.30078597215697,81.18731920483879L102.18583193149198,81.65777350401368L102.52823791670471,81.84083698597351L102.91802228985921,82.21796483600883L102.77790713456011,82.918674714183L101.58793795335464,82.93500567906267L100.97953354696278,83.07869332805421L101.05384318339907,83.53650896080035L100.5419360913802,83.63263551774617L100.12745300780853,83.81803167432554L98.04124324252757,85.37436683621308L96.95342971047876,86.06454362664772L93.64582218589658,87.23543779692227L92.71803869554174,87.76482202574152L92.12909544344257,88.31681195647252L91.59581801637523,89.01335984283105L89.6770324830045,93.63237625933107L89.23005980589414,94.14429514137919L88.87141130134819,94.39284235249579L88.24252459579179,94.65289062384363L87.64973023944344,94.7287002707908L86.83616421613101,94.71066008961498L85.4341114506908,94.51867000525635L83.13653652101016,93.90152104061599L81.89407729952632,93.67269947808563L81.41090293704428,93.69975171407714L78.79136041920492,94.33278263596003L77.51787565289328,94.17266157701124L76.51852241724782,93.7036325335248L75.41219667966266,92.81685459873916L73.9141746839664,91.2768081519389L73.40872967235191,90.41615024064413L72.74731684691278,88.7982990640794L71.40018939732136,87.13363195241982L70.73068026700662,86.61579551178329L70.2621712577502,86.3944037927231L69.77873849222715,86.34156282478762L68.8232650491509,86.41223433507184L68.01385482684486,86.29006711625698L67.01944355742899,85.94518140803848L66.22116032281247,85.45453536591958L65.75613748683895,84.9252712314028L65.37702089250365,84.26127448594707L64.08094810872831,81.14829528448354L62.009108926067256,78.50262210399887L61.31152267660946,77.81388167913792L60.90795033127165,77.54489592850769L59.581213106250516,77.1390468941645L58.850933966413095,76.73505170402314L56.285903884735944,74.54020866734936L55.99803499407358,74.74483504955606L55.691382970179575,75.31188784522419L55.39969633856754,75.37223777549843L55.201963547806145,75.78331046520361L54.81990646377517,76.07006047849063L54.604743951971386,76.81353275054244L55.03290166705801,77.20861972544662L54.54730173078974,78.14144004458467L55.866823870684584,78.6468648539867L55.226179606375126,79.57524176542029L53.504724423021344,79.48594106992277L53.20455690055337,79.79860693437877L52.90361450487853,80.40095803498116L51.38176046869057,79.88024001938174L51.447464529822355,79.72094404039126L50.89875330479026,79.53956557470701L49.79376275400682,80.90570099969227L50.08925648041145,81.2181086046894L51.721851167993464,82.10436417198434L52.35241760027111,82.96736124353447L51.24048232745895,83.82718639479754L51.01110298299727,84.29952214783589L50.35309091221484,84.41614175418908L50.49658826241489,84.68267095715782L49.82137044360729,84.69959437062244L49.021856965927554,84.8596006429907L48.9490296339884,84.63694787528766L48.53320986849053,84.9003558280474L47.51900181114388,85.9943925510288L46.61308646744715,85.6188910560104L46.01860139063024,87.38392696286428L45.31916767254074,87.24138668676278L45.00512810548571,87.7699774279281L44.942513440690846,88.20467843578808L44.46090635193923,88.418603425318L44.5262537805952,88.75237957223726L42.860503256453285,88.95104824086047L43.326334532722285,87.62917078036116L42.95940024354604,86.98430792827276L42.169427003856526,86.3082483104372L41.02262638584898,86.77194133100784L40.44345434936508,86.21025890456804L40.83309437246203,85.26501635003842L39.38243045103536,84.57063353677404L38.379046249672456,84.20198920854455L38.05428077408101,85.22247163684005L37.12307635019465,87.10107262296879L35.431771779710516,87.06404013131396L34.829053371044665,87.22137966237824L34.666948257308604,87.64903097996103L34.07515441999476,87.51942813468304L32.6675191776701,89.14650117787096L30.935946094283736,88.6419414149077L31.175835577214457,87.78201220624396L31.780453678942877,86.8848808793864L32.66148600800125,85.98421707860143L32.5003627146707,85.64283175311357L32.62357015735597,85.40782815590683L32.319432304585234,84.65621573636054L32.3206155257144,84.47455594459825L33.23893350614276,83.35887316212938L33.32369628778656,82.78159419660915L33.539983049387274,82.561347761035L33.140976013753516,81.92729434259127L32.698359135079045,80.7669020610083L32.330629443815724,80.77509849014314L32.215759318140044,79.0805496310204L31.80501619457118,78.83297229650816L31.723974628769156,78.49924154587825L31.26873815905151,77.62666055497175L30.85819991758899,77.41253635362773L30.629637701949378,77.00458567311944L30.559852644594912,76.62879070523013L30.335940110350748,76.79788399389872L30.060210026048708,76.74994873269134L30.066312388005144,76.47389617519912L29.656808075202434,76.39360529383885L29.579309709150948,77.12187584590538L29.3185487552862,77.06744678288305L29.082282213176995,76.45561965254092L28.196364425160027,77.69309188822263L27.830722928994646,78.43062658383315L27.314910202565216,78.6021850847228L25.142727915738305,80.85382801262676L24.80563780879538,80.77241175846211L24.57024586269131,80.55704156671345L24.400427379319808,80.2073260422676L24.14444282813588,80.51053801109083L24.101144247027605,81.29684322992034L23.96971319958766,81.5320755657358L23.820096653172186,81.59189203435744L23.510435651604894,81.46916448782758L23.07793655292494,81.6844133103441L22.882178631061834,82.11837839684085L22.81089652688115,82.55372333800733L23.080724267742426,82.89412389217068L23.24256578731797,83.28561602715126L23.570521185086136,83.60042496407732L23.605965620472034,83.84253323386292L23.535605947469776,84.38647167303316L23.225314019187863,84.51642516280117L23.039818267774763,84.06674509062213L22.820481117402778,83.77609065331308L22.657833173611607,83.29267235748739L22.483304832377144,83.11656004903307L22.196641833060312,83.00412607322323L18.60172110348708,78.1951654230561L14.711729622466237,74.977655721661L13.639687903001686,74.85996335411619L13.548930463903162,74.08285714595695L13.374149146283116,73.6070039726983L12.927650422653414,73.64548992156597L12.862850321709175,72.9083199556535L12.30250233826223,72.86359106157761L12.41894002199001,71.2007756048497L12.085313486128598,71.22906351233723L12.323010997596839,70.31770210865216L12.405749208649922,69.06232877695948L12.328348912361434,68.66505402411349L12.479260612901726,67.94136073938353L12.474209468426807,67.40891847472085L12.73027602666275,66.95569141138549L12.64188253163411,66.53721162233524L12.704962835642846,65.94885032254751L12.16903356054263,66.01459853896631L11.0196572593984,65.74089607347742L9.324712743233249,66.44018999837135L9.222556286601503,66.12658150379502L9.63570806761868,63.95437029655841L9.023529849757324,63.70082046591233L9.038109749179284,63.482998405290346L8.52097534583595,63.32626000840537L6.9018762978330415,62.408769311277865L6.017496216070413,61.5789656484103L6.412540559816989,60.03206648056948L6.4378855509494315,59.67044812632048L6.930876259326624,58.16984301433513L7.377368442614852,57.27898915857622L8.408022945044195,57.70673331549369L8.193752958269215,56.5990268451751L7.810032729547174,56.6698327588274L7.956898417491175,56.3081744640549L7.7580082516617495,55.84258094443976L7.289771910227728,55.60711829470165L7.099970578275816,55.3134833072545L7.366408605911374,54.83851218898599L6.305084801749672,51.888113243099724L6.505098506017475,51.878193869470124L6.683981759928429,51.596634941255616L7.177574285655737,51.45182809763537L7.463071065555596,51.220928435555834L7.792389057733089,51.58297663531266L8.070136570352588,51.712199047147806L8.585272907542276,52.15316544342386L9.405377196455447,52.55156573442582L10.226679984124303,53.079309399698104L10.673208567265874,53.2438819910858L10.646537597810948,53.48165134041483L10.86354222688783,53.59830769486143L10.967497262664665,53.45743814229536L11.11524543036785,53.490320126333245L11.661542844812857,53.90465863174177L13.167465951366239,54.74791159889355L13.439106573150411,54.80075300475619L13.52989220739596,54.937107276944516L13.669175003117289,54.91204363378165L15.22104028436047,55.343421202285754L16.707716572548406,54.12903569280206L16.5585867500356,53.94304930790349L14.267139633315992,52.420525976722274L14.094507091900596,52.261156321193994L14.088267421067712,51.875881247635334L14.246599117454707,51.631573983144335L14.937455993701178,51.171124774760756L15.53549749101262,50.635012032846134L15.82679740041658,50.241647158092746L16.42456358904633,49.95367484977032L16.94659095459474,50.0201422053251L16.95018903830305,50.12569613954838L17.20077418065921,50.17091143501057L17.19395790771341,50.28975777290361L19.19627911231555,50.69126034205328L19.313717613627205,50.86705133066789L19.650627673815507,50.85082672124736L20.654031188233375,51.16388015310986L21.19952738583447,50.91356985369566L21.590049065521043,51.005140910894625L21.73710879256373,51.259871252002995L22.83500750122971,51.54849870938415L23.055367296911754,51.75772568960565L25.981626491143743,52.18126155101345L31.58859364551813,52.35665185338985L34.413699659426584,52.35536566301562L35.800350657556464,52.23903177110515L36.07730718436733,50.927790203832046L33.70657005557041,51.15475327931017L32.61371030010082,51.14228933163395L31.64887340780092,51.004835479594476L27.007449088591784,50.79749599183924L25.488393513688607,50.52527152152106L24.06815551502268,50.11510696111327L23.602217169033338,50.134972788308005L23.289894885016793,50.25646591194709L14.115506055376045,47.75236271107315L11.304475702818536,46.85765975410504L11.1636672946629,46.73227857627171L10.151045328585269,46.34337311552554L8.69657067759863,46.032804684762596L8.311532613047802,45.71972860099595L8.019826800945339,45.791262277129135L7.199692717215385,45.43762894790416L6.84497787082546,45.5309426732947L6.39662913169991,45.479968242088944L6.239135610731864,45.53699841604248L5.27546320713418,45.324875814161715L4.139186088636507,45.21098497319872L3.7779568348578323,45.274660479004524L0.8811638521788154,44.807513992833265L1.3724885885571894,41.878718713269336L1.183553896454896,41.70106986437713L1.3341440530191448,41.229321863787845L1.888107335001905,41.02809793424967L2.298816100410704,40.989509724147865L1.9998534064038722,40.363894245974734L1.4398791239443653,40.4965028201932L1.2125075361354902,39.91768952588063L1.3590573285914616,39.57697684211598L1.818989061611319,39.54703797437287L2.0520497166239693,38.613533172447205L2.4977102675345577,38.004943295287376L2.8522691392133765,37.90338123053152L2.827971081949727,37.56531188223744L3.131862957968224,37.000101922576505L2.618241226514783,36.0654248606661L2.464363319308859,35.29398750417931L3.336532414264184,33.43498322153573L4.59045799408409,33.83715720904547L5.1984554011935415,31.36747584290788L4.227050900834001,30.758725873020012L5.0057348489010565,29.251790927744878L5.37731114229905,27.378627663763837L5.961664371054667,27.24846256478304L5.9963147605942595,26.491805368354107L7.151968275861691,26.501413032383425L6.907208819073503,27.862179891439155L7.211224642631578,29.80675291393709L10.013175458576825,31.18095310797071L10.457249067797193,31.210215490991686L10.44277034278798,31.445365019508245L10.790722869938008,31.928788999341123L11.45386391099646,31.625683500811647L12.00900147875518,32.370276679166636L11.78752465010939,32.85076142282014L10.910204847794375,33.03543592558526L10.937576208841392,33.27014767003129L10.594839010811029,33.32381174146212L10.896299310394397,34.20201574612656L12.028825146174768,35.508106810810204L12.007691648509763,35.78050008131868L12.564881222214126,36.15571005097809L12.936274393527583,36.59204478007632L13.152329019314493,36.41232898729868L13.689179897942267,37.13067506704101L15.156626693825729,38.63338722151639L16.69262474353127,39.130842954820764L16.83326095194866,38.95339868204792L17.360039125948788,38.90662632856038L18.158099546108815,38.320548313411564L18.44314261286445,38.37668090538136L18.743258364161647,38.24813457397977L18.678790858880575,37.66585758138899L18.7419224466762,37.06549192545208L18.86316220101594,36.806091997197655L19.319326549785046,36.78283627866767L19.25477885119949,36.05145581326724L20.27559335985552,36.11629739583441L20.141798748443307,35.59690507179221L20.783596701811575,35.429986656165056L20.90545971442839,35.224855746901085L21.431543250875393,35.360823328048355L22.477730099192513,34.70151204065223L22.449986246139815,33.93796169756388L22.99427984607155,33.15615524718123L23.143802392505677,32.45705125484528L24.209066460198073,31.831934332527453L24.63774048297205,30.458900544501375L26.150440722573194,28.753949392501454L27.281967941919447,28.11248743681608L27.989664787118727,28.01274533360811L27.185876085513428,27.661136120555966L27.6678759420206,26.617878005961757L28.117023266658634,26.148773421875376L28.425880371111816,26.20153263712018L28.828408248275764,25.801181467235438L28.42880338604232,25.374907645344138L28.65101901421167,25.15501928982485L29.13394911127125,25.143362090579103L29.253116572600675,24.32238607223917L29.759372503227496,23.953230396375147L29.91259604706579,23.650445227765886L29.83772893517198,22.881324025078356L30.112117842217458,22.5484281896006L30.608745800083625,22.282503040001757L30.69765431083829,21.199796203662117L30.619295456288683,19.34047476645719L31.371204719199113,18.961313379182684L32.26180918488558,18.755717433166865L32.393111793199296,18.336586817827992L32.87835476462601,18.607920798693158L33.42204164031068,18.25697539367502L33.60330127145812,18.671278889549285L34.16698519658166,18.944087565689188L34.71147272130793,18.90622731552139L35.58436514582786,19.067473943623554L35.92113693628244,19.266498862669323L36.153030159904574,18.903472519723437L36.34803187443549,19.196011335165167L37.70958098877168,19.004430532333572L38.19904954668118,19.5061133410436L38.479921724982205,19.649526474739105L38.9875626070675,19.762146053773904L39.15379973263907,19.398422589192705L39.49056181033052,19.604943784175703L39.918661969664754,19.67056597506962L40.155223285592456,19.893715707459705L40.490622075516285,19.91770627632104L40.80126277676641,19.80430476350739L41.213368194813484,20.21403665330581L41.821998966906904,19.696332658339088L42.655700263454946,20.378224811351174L42.913771325040216,19.9239529727256L43.51821449079466,20.295340140399276L44.071247361663836,20.116803059745507L44.597652605815256,20.65810900836732L45.313018973594126,20.290647106699907L45.469493091012964,20.017046321472662L45.546186513887505,19.65668323913451L45.11578165129049,18.4954569812071L45.092898307706946,18.24159027778478L45.77810882819517,17.30799608830057L45.824602937191685,15.627147982671886L45.5835241148136,14.747449184749712L45.592597759105274,13.768014542141827L45.99212133363426,11.959831455784297L47.01555291174009,10.597246169842037L48.57698727011666,10.647567498730496L54.36046079132416,10.443249848111009L56.04951505064082,11.931309767081984L56.40829859746441,11.862930562887414L56.59272927492384,11.636657395923976L59.33231991842331,11.19157777449982L58.75242535693337,9.55571822989441L59.003639700259555,9.486977212458441L58.960420705169554,9.268644853358637L57.99554815906731,9.215523964669046L57.823644640957355,8.518726941154455L58.70355467177933,8.378961813412388L58.70892024574073,7.866040878679996L58.916628702871776,7.682802348441328L59.08767268451902,6.652968678135949L59.35370901873398,6.239358005072063L59.69873928580796,6.422339119659227L59.710094200785534,6.012266973062651L60.12196225613934,5.496024683383439L60.770367034373294,5.208856944555009L60.60165530171844,4.820452651238156L61.048340296746574,3.9092896302554436L59.39563240607322,3.2936883994098025L60.083000413598256,2.4154157580414903L59.37658189788431,1.8419690506616462L59.64686765311603,1.5038979604360065L60.35225409515215,1.8972183540499827L61.20876821019192,0.9887873675670562L60.566967341302416,0.6241716046843067L61.52737613069098,-0.8867349376705533L63.67893210905504,-0.531272629439627L64.24298765204867,-0.03601268843522121L65.10762824998733,-0.015489075340155978L65.39809170171111,0.7381401613147318L66.25450216024205,0.8893525014045736L66.99284659764135,0.7548691562060412L67.33790268027838,0.3059830711390532L67.78600522900456,1.0747032905164815L68.37150560938221,1.1851304097963293L69.30216547131386,-0.6536979153879656L70.56919903600487,-1.6423973877772369L71.39241565998873,-2.117850041919155L71.66787632036335,-2.4389651159181085L72.5477123915025,-2.169115829072325L73.6256215888377,-3.704301749521619L75.43056221876577,-4.703213110138677L75.43007790567299,-5.384484472655458L75.67012371507076,-6.098712414806869L76.20915727077431,-6.212524433060025L76.60620229834603,-6.142746539380823L77.16268684907232,-5.904003898929659L78.31399731401734,-5.111169202364181L78.61686322558648,-4.794393150679753L79.56018424933359,-4.36109933228181ZM-214.09576641274907,-62.29404394577614L-214.0355524638603,-62.23546775895011L-213.74382723273789,-62.41422975930436L-213.258197009485,-62.18336808748427L-212.2880160747327,-61.47752321560802L-211.60582174622573,-60.72573175954312L-211.56372151146115,-60.292191445661956L-211.9945997394666,-60.18902531031381L-212.02727310159048,-59.989872725220266L-211.5727744454798,-60.06317435986239L-211.9983178415248,-59.19761417963309L-214.45345967865183,-57.720336596779816L-214.77187097823344,-57.68115483314432L-216.82920198301963,-58.089942554794106L-216.8705273262599,-59.32405205719442L-216.64565839786633,-60.84012598431946L-216.3911805227051,-61.83092423517701L-216.10408479940224,-62.46420394797133L-215.7225985937789,-62.985677962095L-215.36444785596314,-63.247181584058126L-214.92796114356656,-63.42691327341163L-213.96210070545135,-62.60659561902139L-214.15298104666567,-62.34970181153221ZM-223.25396977748323,-71.43809716756368L-223.54956695199644,-70.65638734083586L-224.096622306271,-70.15331944419631L-224.4996742605174,-69.06529761427555L-224.91709590753112,-68.49393555145252L-225.0000843763869,-67.7534401342873L-225.24470368124594,-67.4694332415529L-226.40677642798005,-66.91178005018264L-227.11585573121738,-66.69725147954705L-227.56693654266178,-66.76177246283623L-227.82583892123148,-66.89300560246738L-228.2109646163908,-67.2578144684594L-228.40988306066242,-67.80644459573159L-228.37262898075005,-68.558999000119L-228.1053166070949,-69.73388179313042L-227.81472036995683,-70.46173634820298L-227.57721482496413,-70.80962688739783L-226.9698625497058,-71.24527160014804L-226.59384689693184,-71.39715777146557L-225.8840369034583,-71.31054148288058L-225.40416771905802,-70.98286178074704L-225.1968353134373,-70.98602445550023L-224.92778648431386,-71.25479881688989L-225.04224263258607,-71.44883280682734L-225.42113727093306,-71.49416058815405L-225.89111320270422,-71.75282571355274L-225.97567197758804,-72.1129724481234L-225.77158836170202,-72.42260987301415L-224.9746918046194,-72.93285592075154L-224.4360250016407,-72.97729714170964L-224.0037002656709,-72.8294631041681L-223.20865418567132,-72.16660905490608L-223.1531164019318,-71.89093343725654ZM3.8990236960516995,47.27430844297305L4.803673203305607,47.39184355890211L5.570031163322938,47.378821742231594L5.956638244612122,47.5835116927592L6.311974115131534,47.5588269324835L6.466120423911889,47.697214612599055L7.300649799687108,47.65457286711535L8.673566296578429,47.92375539253953L9.182369993764269,48.57852622283281L9.36766372433226,48.67439309322435L9.423002521149783,48.9484067358153L9.363846689988577,49.094179566012826L9.245756166525325,49.13757261965111L9.037102466634678,49.0762585855955L8.491636007113584,49.31392467614569L7.888749237453567,49.36607471100433L7.725033788276733,49.260289873056536L7.752584310689144,49.01277665395901L8.635718656542394,48.966682805972596L8.928262693214037,48.71829527996306L8.977576942070755,48.64389236576426L8.891682031321352,48.47841496517685L8.702844795451483,48.29018671175072L7.839378743652787,48.22566256719074L7.8666448915132605,48.00810720708432L6.335125476155326,47.92345414963893L5.8280009700542905,47.74924494428706L1.9145797877813493,47.25334613153973L2.348002526314758,47.05787998036794ZM0.3560725811494194,47.0020285656974L0.46201275951648313,47.0719141215086L0.13750131897177198,47.050923945764225L0.17435238809230214,46.922113786800765Z" fill="#000"></path></g></g></svg>