<svg width="100" height="100"><g id="layer1"><g transform="translate(50,50)"><path d="M68.43266576535666,-16.17389704899324L70.03664679806434,-14.366607583446239L70.84107785935271,-12.625801026839326L71.6337348002462,-11.602687221948145L72.01928959603993,-11.217997116389597L72.04803761628955,-11.015570743771605L72.62507554882836,-9.735056587609506L72.90845059145431,-9.309251585511447L72.72474371363637,-8.837431190087955L73.30083618372123,-8.565961396532657L73.2817948169261,-8.298291434230123L73.4234134985229,-7.851369341382451L73.65041217413295,-7.806159976562412L74.35139306228757,-8.929988114750813L74.82383131646202,-8.867038895652513L75.09936033424287,-8.688418983769225L75.68543534999958,-8.618610671637725L75.52445012376165,-9.252260583783936L75.60230427039846,-9.493888495835563L75.91974631675612,-9.46381423620187L76.14685851813647,-9.154186916950493L76.17898439084843,-8.5686003648716L76.37614547617022,-8.27229433120192L76.41211487463511,-7.701616530357569L77.15522781401728,-7.547220616064806L77.36116964457551,-7.587622526756604L77.67177781228861,-7.192934695156509L78.08082374971491,-7.335329061239463L78.7866000430804,-6.881699836267217L79.89055366411708,-6.783188037596119L80.7964038008472,-6.8564090371855855L81.57083639064194,-7.001128398587753L82.3215661531035,-7.2417139028129895L83.04552134469463,-7.645935326550898L83.27098045749813,-7.952125251016696L83.62130043827551,-8.756354486818964L84.1806359766565,-8.954140553545585L84.60112479068289,-8.961236114457279L85.05925263894846,-8.8317952862526L85.26615790877895,-8.695725654861235L86.31103083604489,-7.572035939097987L86.99667797739926,-7.169185610871864L87.55411162506789,-7.194542036564599L88.43993399464216,-7.712508869535668L88.66330722332009,-7.371022219045699L88.68002546994785,-6.51822041754167L88.41823831737815,-5.593951080332772L88.28824172142322,-4.723814910305009L87.9836032394087,-4.699639407110226L88.39471488952631,-3.9473511592786963L88.73247030317702,-3.962680858998283L89.9108950246889,-3.2936663565342315L90.14155662677899,-2.7877661593811354L90.71514217437493,-2.5034351321173745L90.78702952546996,-1.4959011275695957L90.99870967781067,-1.4109402939830034L91.33576319576878,-1.7988991933088982L91.80225265985746,-1.688819670731391L92.23215768411842,-1.7082155249900097L92.4653942131099,-1.996446797345925L93.01209934160465,-1.8127949016816274L94.09214729829569,-1.9153931894652487L94.7730571495506,-1.811235310327902L94.91116108841857,-1.5871695542064117L95.47247902965228,-1.0863941623902065L95.13559229257794,-0.18664957228429557L94.73108050442693,0.6046029835615627L95.35831810557374,1.230760207366984L97.28665971981695,1.5030532651362591L97.96382164595843,1.2983254325972666L98.52174424801501,0.6385148370372917L99.02553495177085,0.7735709881962975L99.65351290372269,0.4935674804601149L100.1539425519777,0.38890288573929865L100.3421219495408,-0.16474611785815796L100.17143004668719,-0.36315593954168435L100.14445118294225,-0.75457820336851L100.39285545979214,-0.9304328308662662L101.66543239484713,-1.0645066447668796L102.20415885958869,-0.9599396150042594L102.40515648269275,-1.3348227037204197L103.07052125833297,-1.8126792943676264L103.31551140432703,-2.1773983615366888L103.55088489558307,-3.2010249446047965L103.73399814942331,-3.434559322438872L104.12836561532617,-3.701668958481605L105.01897157647181,-3.6779467074538843L104.76675272292778,-3.1456425824599137L104.47240214032786,-2.1970072231433733L103.98655621160174,-1.4823452410455502L103.8665160570497,-0.8590036518526176L103.9202501225343,-0.40185868464322994L104.15569175461565,-0.052621270497184014L104.84775629366982,0.6293110018195875L105.09909869170929,1.456672158845322L104.80554865548015,1.7603966563619906L105.1076404530836,2.2026120933314814L105.78130422218283,2.192311133523617L106.09373902784841,2.6510382916112576L105.94968088106134,3.0870257203623623L105.98748707730078,4.126302908571233L105.82203367841657,4.210691087113446L105.86027731006288,4.933837796441367L106.07303961711,5.600335986398932L106.40102919116862,5.86447539371693L106.22346014675986,6.004818834906473L106.2044304479291,6.799683871200614L106.3830438574546,7.330699076013843L106.36880421465503,8.716672725682656L106.47325131335788,8.896134151598744L106.69450939070748,8.985696301095231L107.0805933798431,9.03411411146044L108.86693643360968,9.57328092978969L109.97353748901878,9.643521552212405L110.83281669401072,9.579352930844834L110.90100033679141,9.80802771501294L110.59552660359896,10.029445082473103L110.30065991040419,10.503396033423996L110.42984963516801,10.992279175789008L110.62892035614595,10.798637160567523L110.96753519842514,11.571146293317724L111.68973922550049,11.912519365874687L112.2041188529081,12.696337392344503L111.69998248880688,13.17146286759089L111.84799493731884,13.575374955968073L110.66415071860774,14.108405454318927L110.24951664384162,14.120108733073721L110.27463907697665,13.794850475211206L110.89300367817964,13.414405613024428L110.76831793033944,13.12386455399428L110.27550845998007,13.395193930959067L109.97752395715247,12.78433836293334L109.1400236140862,13.13687896753072L109.21609849486231,13.472560897313087L108.6505755261162,13.696446071740866L108.37166388669743,13.943490360617943L108.19325746541836,14.336215621156953L107.98334906691139,14.393836608714992L108.32030437395088,15.146408730917756L108.61608271151658,15.571240554036194L107.79206461549848,15.873949574885046L107.47425178501089,16.11300011694766L107.54134162142918,16.642900743154314L107.3412115027013,17.377395840165264L107.9387646871387,17.68756733660848L107.66591396766512,17.905248442930315L107.46856039359977,18.414858287522293L107.49487658499038,18.520181648988L107.75112504075128,18.530713245594598L108.120298199334,18.696013027445588L108.2238790898457,19.189965699986715L107.82081049369322,19.46414544909203L107.52595626659809,20.15701450784036L107.47573359831176,21.010924393420282L107.25043860073947,22.039386628337525L106.95020828591419,22.400953082187698L107.32476381500987,22.69173772562499L106.66511113379579,23.163428904192187L106.9028896973166,23.30537845562867L107.46805816066535,23.32167509734245L107.88858926932267,23.45077977512483L108.89853097845548,23.488756144519357L109.21606173973146,23.7457813996989L109.61954343989873,23.4281712190259L109.92984371427792,23.35823933368738L110.68986726840035,25.19070757690679L111.17865259866335,25.50557243345429L111.339204016655,25.871033850000458L111.32340224465815,26.34091445832746L110.99533983561628,26.628886892360242L110.58522583132094,27.280018634108274L110.6719064366464,27.888049597810095L110.36940163917484,28.085040307367308L110.05552795784365,28.435859499189974L108.70516478365585,29.070743987791502L108.68528373283698,29.317280009237948L108.08477121526721,29.662444070685524L108.1995505358716,30.303763018031532L106.08488280889924,30.847982980854795L105.81606427565566,31.205540316304905L105.85045838088399,31.880937692618318L105.30268980458982,32.03319572750115L104.9391258671219,31.93318733225351L104.63692837907979,31.968276750472796L103.16962613787314,32.69789988798584L102.22603621798362,32.89197507355675L101.13275999995108,33.57137892126957L101.36581215041019,33.99128765844944L102.23153375829838,34.53545245448731L102.38590681412097,34.90553273108162L102.68446562997929,34.89230843857331L102.17455742086781,35.85330616394458L102.42267702572508,36.088439974246285L101.79749876311598,36.346893540106976L102.20639853338707,37.343250187879676L102.45988643422311,37.76914220218532L102.76582829186714,37.81537355669752L102.77351115896704,38.115836491664595L102.97113916192325,38.78219739375163L103.57110385657825,38.75834840734569L103.43236773840636,39.007277427694135L103.65051419052043,39.097359288203734L103.66710809837377,39.44791903483201L104.43959880489479,39.229246875856916L105.09229869631599,39.35589470953346L105.31261058821747,39.14673202690392L105.73192427489676,39.28935158717286L106.11722074389013,39.87839209845151L106.78983072297979,40.216997368552256L106.69627779508482,40.351508964422464L106.79959790605267,40.61543038673153L107.40913114228647,41.087210310703085L108.09030620115846,41.11785912819869L108.47975524732874,41.37617523021618L108.74807992829597,41.84029892797662L108.62863346961922,42.471156339797744L108.75830811153742,42.79397605581289L109.18986069722746,43.57934652732001L109.99581447929813,44.556091651542374L109.47634848105031,45.51340972323851L110.29636798815022,46.18183129458521L108.67579192915696,47.58318453301581L109.11008882500437,47.702483388229666L108.6363026384804,48.561225306675624L108.62084944979347,48.78431047651247L109.91755583812164,48.65072027708629L109.99804832311565,48.91613145327938L110.39105448850114,48.96811164883184L110.35279055840033,48.61633335415354L110.82061437311154,48.62664166999821L111.20265520644284,48.77901490658769L110.99983664399383,49.1580230067575L113.30816819771326,49.98695428563042L113.27843760773226,50.41310992673789L113.57963624753688,50.773035980502755L114.26742579901838,50.912196694458544L114.5473428379139,51.09185809806877L115.61381193077978,51.096357526741485L115.95420227557929,51.4557689111698L116.92651816249486,51.00583063847807L117.58253008355587,50.92442508129352L118.53557796736777,50.92199026675007L119.48114275466241,51.026155370687775L120.22305869293791,51.20912471035808L120.05319129973827,52.64286502108371L120.49956846748978,52.50062467015596L120.80000146121279,52.48950303890524L121.92210004564163,52.57971568445464L122.54252394492505,52.76058070624822L122.43684655311449,53.858472399124366L122.11563958257943,54.06917427837652L122.09006340427754,55.32357480756036L122.15222931965945,55.65390243591173L122.68539555642474,55.51770901074087L124.27337965302422,54.89257539947175L127.21863135110539,53.279653695663L127.58579947396561,53.21472697945683L127.90619612492924,53.362052701300854L128.16502146467678,53.68904369850861L128.29665344774548,54.4395206559966L127.89834839221385,54.813922600760634L127.12843996930246,55.26121457107547L126.7741368381628,55.57572461475138L126.85843838185428,55.94074916290083L127.54266149735895,56.733392421969256L128.07001826579472,57.11770394058476L128.39261364495655,57.523847695887525L127.83948870716836,58.09969357415139L126.8727874324718,58.09776595204494L126.34397806986385,58.26606882575106L126.44926029061207,58.58405958122421L126.16971779251776,59.23187231881275L127.26528824728825,59.052157720963805L127.70195541085104,59.055249854076465L127.76378516297768,59.4287529852154L127.64437106685409,59.7506972889023L128.1293836417285,60.12506274317093L128.25026097305613,59.90500739122399L128.59299690001603,60.2282882978252L128.40150534679833,60.58949224653952L128.0978088849556,60.64838997549123L128.0897093344745,61.00183284215382L128.3866296214453,61.035791948861515L127.84611955271271,61.98592885389735L127.84906118872186,62.300033419891406L128.02626749264732,62.483130839706064L127.9313091144138,62.752920423410615L127.31432365940918,62.94583018762205L127.39243261536672,63.165091049377224L127.22575912321372,63.93192567069309L126.75754862807639,64.44291220534978L126.85158058922025,64.67681705170799L126.67799507505265,65.0103770013593L125.14994552323446,66.73049395295493L124.75844316398457,66.70080240182506L124.3385372724722,67.21302402823494L124.04694244493976,67.11730906435514L124.04515938481768,67.55971482757195L124.58349615192606,68.12497912728577L124.96259166299046,67.52116506506718L125.4103738417814,67.10143710432749L126.60735173836997,67.04097450663176L126.74299330629901,67.63548617469132L126.97348134437152,68.19943554654128L126.96564528405929,68.65409252344762L126.22790502111138,69.29908420125321L126.17780806825158,69.56202577289514L126.43978811806983,69.7887065321047L126.51787068673138,70.00784615034354L126.149123347353,69.96979774653846L125.7503539887498,69.76427720333231L125.14471572988714,69.9127502537176L124.93005031292864,70.44348295821692L124.56159742343903,70.77364808009406L124.53865651913429,71.13512307163546L124.67196467592271,71.57430502959687L124.34283916943082,72.10985355208322L124.441042143299,73.21875026017005L124.9286285841099,74.01001465115223L125.39100848296107,74.14937670789914L123.52180104313288,77.1512833703473L122.99437463163872,77.68446536248484L122.52539550820575,77.21790931992473L122.17701210018481,77.10271958759222L121.84444382958554,77.52886126789781L121.97955942810404,77.88199320853346L121.88279691706748,78.4305031110107L120.94993950090338,78.12600028855559L120.07323635908847,77.33737751439003L120.22414220001247,76.93342874996415L119.16769667643575,77.33773443544669L118.80580801418023,77.63754447556857L118.57460550401333,77.4547842689517L117.73262007258518,77.536818649005L116.87955578843275,78.19990910308297L116.49610928664674,78.38748914163625L116.725821137504,78.9267440361873L117.41824939497269,79.27982600566793L117.68724819989143,79.50426259337291L118.07435691882529,79.45867878819627L118.19438496524731,79.70278247909664L118.16396806529451,80.48561959052313L117.78686003793564,81.43626087402845L117.39615072289052,81.95639878083057L117.30213841021009,82.22774472988931L116.83232963443675,82.63811031783916L116.2559891863616,82.9712180138904L115.86148028800903,83.34463480067643L115.71757927653948,83.1592946808396L114.8197083477221,83.95680230276412L115.33061096525694,84.73275934688354L114.76665987513525,86.44924695878217L114.4291369471357,86.59411906874448L113.86099820887011,86.00259395816465L113.25593701080834,85.55462095668918L112.96598544866583,84.96783554883223L112.69240739424345,84.76079043412028L112.59854380043066,84.57910129797347L112.60853287279133,84.07323407280091L112.14479730634275,84.1199023852023L111.61824596295878,84.3104866073536L111.73992460758359,84.64999631223327L111.24755133974577,85.10054736084021L111.31692654011954,85.3846331408131L110.99253082884297,85.6840591808832L111.08571103956228,87.1560665736506L110.74039645053836,87.67391666816548L109.9207959443338,88.2973250397281L109.69433116841378,88.56226437831356L109.09572206473467,88.67271923094268L108.6890803598078,88.98160887871927L108.58438935456252,89.20833157097513L108.964920725698,89.35251609506668L108.61728941120032,89.6128516263143L109.52184938312234,90.04047045872721L109.17636021389694,90.38284004867273L108.83630426696413,90.9589236274278L108.5539869163581,91.13978361046065L109.47775325114321,92.18681465009104L109.87409403376182,92.3456128821399L110.98354067867285,93.10120897509114L111.18003571042505,93.40658674159567L110.92125827167979,93.42553396237236L110.82657279918726,94.48598647987637L111.02786417995321,94.56122414140555L110.94392290905739,94.90860524086565L110.72908730445602,94.87215319122333L110.67786970545012,95.09589269191565L110.18049788180224,95.56824981820682L110.20435894837078,96.29277043160619L110.32764407208128,96.50122641868802L110.7053886960507,96.78257652940374L110.4820144970945,97.07489546395118L109.78612663366312,97.53296099924773L109.74056964731426,97.88623076092335L110.13746003008669,98.2583293116968L111.09866323860979,97.77345763471567L111.25694686164411,98.08727834864476L111.48254207416426,99.03634858501937L112.31566214333748,99.81449906825401L113.12190146883245,101.14732360505877L113.49070326602464,101.59672684055113L113.85647452031094,101.85013729975071L114.18274440975028,102.3812385211786L115.16185725019068,102.43421878645495L115.92341316992338,102.73840483801905L116.03813840837847,102.89883189731154L116.97357711511813,103.26551991763881L117.19808679590233,103.4720976782628L116.64607461440391,104.50088393263468L116.74305873925141,105.75908097317188L117.14289971747621,106.25193244878756L118.00738458106002,106.52179201994295L118.19426486370116,106.99260182996659L118.37351144419017,107.09171331861216L118.33805088928625,107.3297901031292L118.51132692425836,107.46731067596738L118.55324307750175,108.09119141561314L118.78011487271715,108.59263652250593L118.9785337598712,108.60699082284191L118.98396608768667,108.91194591150634L119.23369415943466,109.23690742315193L119.91546555325704,109.70352102105244L121.15806383305994,109.64750974446179L121.41875734663881,110.42446331850442L121.96070352142556,109.87265983994439L122.09515781765936,109.48485461483324L122.48123821676722,109.60531451786846L122.1076040549708,109.8362634439327L121.4931256524394,110.7398603560705L121.19388194076555,111.75069635969521L121.47723856808625,113.93667102155996L121.22681639458779,113.96180704185826L121.21193636715248,114.11857808887908L121.4289905071198,114.49120196430158L120.32850298120024,114.2957664494188L118.39655914884565,114.46982914998443L117.70952266629638,113.93284614593358L115.69090567553872,114.05839686932995L114.20888444376237,114.96090791523602L113.18167422524925,115.74288626373163L112.89946329692293,116.0841979492161L112.72014713453905,116.47867166774267L112.44705033221067,117.52803481618321L112.43008507151853,117.85537035231391L112.26318029349272,118.1484010393724L111.83214871216683,118.42411640001592L111.64510763156363,118.69400780663636L111.45703665712199,118.77424363319187L111.20808834634931,119.54867667889994L111.19593576235161,119.82052994820697L110.73787638744238,120.29911279887529L110.41376847118363,120.82946568532498L110.19409456973108,121.3936550287417L109.29029712031456,122.02375790810765L108.9591992252349,121.84139659677749L107.40222763093016,121.48954425540069L107.42195578772157,121.11895150818236L107.62452919308521,120.38497898694914L107.65416238425428,119.74740031859437L107.26747987429303,119.50025489676955L107.08520222708125,119.88498575591075L106.75163637363858,119.93458751470826L106.68197747247973,120.00753185024405L106.57491274571453,120.02176912333198L105.86658822926029,119.54152715251075L105.53049572814871,119.52864656305974L105.29544383983512,119.6830744538147L104.78663936155363,119.65508829789178L104.64196371084518,119.95921104921581L104.49110626528682,119.95866606337586L101.543233043604,118.69642222095717L100.94212218513326,118.24534163647513L100.89129365185954,117.96917556607877L99.77463225534166,118.3379692354556L99.24043016621818,118.33294130975264L98.2691925020149,118.94778012682946L96.53913758137833,119.28643112501777L95.73815966238135,119.26750247287782L95.29315150156594,119.43633832918567L94.51654163417038,119.47120256144444L94.41982402032318,119.71807357177568L93.98468765399139,119.70230614851243L93.69578435259291,119.96433287179934L93.65468202420584,120.59767779956564L93.00879643673238,121.8392345834909L92.68599779867554,121.9546128908969L92.45234484900834,121.4417551062561L92.55510486331445,120.95692977636827L92.38344106659974,120.22513721499126L91.36821216101634,119.10394505018303L91.54857616028198,118.96132233031494L91.33021662910528,118.52451861438749L90.77916402412848,118.57103627649485L90.49195550052968,117.6690349205528L90.23918663713721,117.6396443965059L90.16793894279135,117.99235423516438L89.08624083018458,117.9344403868181L89.2211542855614,118.37741413701588L88.96195997746054,118.47081935512142L88.56445631943711,118.20547546519629L88.46009452151702,118.31444313513748L87.41170660787179,118.70052499977282L87.11942350399545,118.2981610742354L86.92932902186476,118.37345768102568L86.33318365895207,119.53888433078464L85.9650991770618,120.08154040400586L86.10531170588479,120.21682008000607L85.94283857544929,120.54118153270429L85.58230834740266,120.423769657109L85.31563418547853,120.27925269768457L85.03344175616644,119.86471626479215L84.66695740320733,119.54527448984118L84.4965367139971,119.48342395434702L84.36150704710144,119.30469130108213L83.11868985546266,119.0926136037051L82.59229005720044,118.5235739529744L82.27345360136223,118.41091632572534L81.83156941185894,118.38316703108649L81.51222652014872,117.7878191769014L81.10020937268814,117.52335196755848L81.05035189791124,116.69461445598608L80.67821589867003,116.13345032082725L80.60271739097038,115.5478288231061L80.24553343966863,115.20912919840521L80.17004317155647,114.89784480225535L80.07486738189618,114.82545576211669L79.47761981796339,114.82226641635862L78.48133196885465,115.29815327721371L76.93597319631772,115.48476386862058L76.57849749189313,115.70091822376708L76.2827178725529,115.76068506776755L76.0941917216353,115.32416466361974L76.05114452115299,114.88856234755076L76.2034996079833,113.87573448885996L76.66631669133017,113.28611169867872L77.69550012739296,112.52438591845385L77.8845331281484,112.1393869523381L77.85632863924798,112.02550721451189L77.73090809396263,111.96219502943313L76.83483623326788,111.95758480192126L76.77535345322985,111.82979566022004L76.8097860979999,111.41352361004465L76.63215563330891,111.21440727589652L75.76110700953927,111.06252231072904L75.2408762767684,111.28119644244907L74.81867212148927,111.85774089502775L74.67037344524374,111.94092277162417L73.87350254693843,112.14582139711456L73.37940688756294,112.15356819050612L73.21065022362336,112.12328486675324L73.00712666977483,111.83523669769602L72.85937305146763,111.76583243465393L72.65547954317276,111.79822682849408L72.46465147725394,112.11229023666601L72.30949750306308,112.86714701430719L72.349397050873,113.39927179769438L72.52855270198415,113.81808693494895L72.83071856197375,114.1014834250982L72.832302236146,114.29973051947309L72.44648473889765,114.83639535402472L72.49113661503884,114.97923152408839L72.77121539594918,115.27888422766227L72.87162396474059,115.64029882750583L73.77504869120821,117.0853716648362L73.86481765193435,117.5463716213253L73.85156244482118,117.75288153825022L73.72379521161747,117.9494676663544L73.02169943258173,118.38631570825783L71.6017476969023,118.91770632713451L70.65615406111033,119.5109049571929L70.09056388980412,120.58954356068534L70.05266767347848,121.53489607238953L69.93696401289162,121.92928748720078L69.74607546947414,122.19994046239663L68.10385651968909,122.81721337425915L67.72602871618574,122.77495177355922L67.27481340842405,122.59690152845906L66.34877107488546,121.73773353636716L65.85899186873871,120.68749445088542L65.87541298944438,119.45480038751339L66.06408409171195,117.50292990015078L66.28983708936266,116.59635604910363L66.26644283618134,116.14826876618645L65.26498046866527,113.38712124435551L64.8888735707676,112.97960850049458L64.65692839383178,112.42831805877177L63.971039788682674,111.44671787214065L63.74789296779795,110.9310059681884L63.647591966182745,110.37821854692083L63.916544267151494,109.52433426710923L63.86261932011871,108.88757188421005L63.237978777850685,108.19367484143913L62.94361632832852,107.23651974578934L63.09083332508317,105.78236807856592L63.698400695581995,104.83760677966166L64.00834267743403,104.03672542956156L63.919812138839916,102.51162817602017L64.23214994542104,101.60709030004546L63.11931945991978,101.76002673280527L63.005816192111524,101.65121343736428L62.65177122834643,102.03021709160203L62.1924769685138,102.20159668209271L61.92415342640106,101.88719742960893L61.939796735330674,101.35498003001885L61.867552499782505,101.14656574374385L61.459277216502414,101.27566593813935L60.83596903459102,101.69425638580833L60.468743159100086,102.34595039937085L59.997979633288196,102.53188377137849L59.67483105918177,100.9239964494518L58.03070347156881,100.79320959100733L57.62309572522145,99.93722328263357L56.825142064231386,99.09506169019915L53.79827654288738,96.789018099229L53.33786972482358,96.77335348204542L51.07079956673374,98.48904151913302L50.387336927520664,98.04337658139957L49.583924557278124,97.249894799108L48.35012351043315,95.54375438907664L47.628364985140024,94.85695329502414L47.31912516340435,93.32084265667436L45.71197772634355,93.40339291944838L45.04187808368101,93.07701596253173L44.63084873496928,93.26072774924978L43.934140403465335,93.24422865971974L43.870720230991765,93.5192699976833L43.94374738932834,93.98496513225837L43.512968756148666,94.50174842157867L42.68039822199739,95.29085655714334L42.29420445101891,95.43237149926244L41.63882897231247,95.4526730484522L40.759983806349965,95.66418539536244L39.985234017452285,96.30620704819194L39.50654060150032,96.87108747959428L35.98451316783394,95.35350123660282L35.7298531347526,95.15195203727126L35.50741201191181,94.28945333752199L34.799526999611544,93.99726123179971L34.19267171140018,93.37037719342152L33.49002416047165,93.23440793140435L33.21504177576526,93.35156500975972L32.3980190520208,94.05643815091935L32.148443964457556,94.15309496165901L32.10101342719281,94.26134397931673L31.1790310275685,94.97629268878882L29.845365110492367,95.70943976073431L29.548745688564622,96.30657099567179L30.59542904855857,96.94721946127902L30.70221399683919,97.2618845198649L31.183904837470436,97.88022188905416L31.48441917877085,98.03845400926002L31.734810256904893,98.54080427242843L32.017229220124136,98.72159269072836L32.05497687990669,98.90254216211724L32.31995631945938,99.31273067903385L32.36984858929986,99.64220961906904L32.116196249238556,100.14801151563188L32.038355472638386,101.08510165532425L32.66642890504181,101.85474710317249L32.83516471442249,102.26001883163008L33.068001493295924,102.36147133844861L33.10364820153427,102.64588884251862L33.40019200914571,102.82353764715481L33.60957880292267,103.7125316872989L33.84210150514036,103.9053795699565L33.966367271578974,104.13967439482076L33.87288169230533,104.57714729162944L33.99515360162195,104.96541753525707L33.89110232495841,104.99463039324655L33.769325499044044,105.3445173884138L33.640357663929535,105.33034599308303L33.51142145792869,106.09306658129935L32.93061413744431,105.99049461118375L32.59978417697289,106.12879122822233L30.940741408709528,106.51441082829842L31.134603031235656,107.7644964290539L31.030045724396814,108.02453461861114L30.981406444866025,108.92841314649922L31.248771261644833,110.06643745373913L31.5080891714897,110.7529266671354L29.158689264107807,112.37474746954649L27.489478605956265,111.55394971801616L26.886256024676868,111.01544355426813L26.16390004173786,110.61190418327897L24.87245582333071,110.47500182523436L24.620095658737,110.36513569114868L24.21152228346091,109.91221945800135L23.84289892668562,109.70581655295791L23.671708606027323,109.45370010131774L22.023364197915043,109.0854367143711L21.477254714166975,108.38698052354448L20.433585389609107,107.86843895814673L20.19947258311754,107.81670826001391L19.729840014071442,107.74831517947132L19.167186574106154,107.9587652325481L18.62644729883391,107.99151543907283L18.36702753764189,108.14661511275335L16.42415776747316,108.72800254069807L15.063239170936185,108.26865362739045L14.4557212168354,108.20117356911396L13.3000584699505,108.81287362771764L12.498461227040025,109.01352000469706L10.907549425774732,107.51672078072443L10.44174809417109,106.63536874156307L9.308625817791153,105.90511461919414L7.717623909155009,102.42807534223903L9.807557401072017,99.6404640271885L10.77314854725455,98.4936648433395L11.249532768323434,97.72329253219505L10.239474135671344,95.47490084843048L9.85689372456227,94.28410070664177L9.206492535971847,93.67504079672108L8.367965101414939,94.07695292977405L8.107565648597529,94.33349123859443L6.862309204004305,94.9442336996326L6.674943784928473,94.99391372524406L6.571771234479229,94.89430479033399L6.105634390726891,94.7986507204314L5.332350170737527,95.1961286337937L5.032718158103762,95.23397149659286L3.9828289492147633,93.88069187901965L3.777860068278187,93.39794305218311L3.712093189996267,92.72981348805115L4.143227334714993,91.22696156862185L3.9131983308957388,90.67800482090752L3.955020509323049,89.86208999692099L3.773727916341386,89.14200158280437L3.271356542765261,88.71308221359322L3.121168089799994,88.13097676312645L3.2239587689018663,87.65847903106624L3.5718814211070367,87.37548289912957L3.77959060827925,87.02754204294797L3.8362431375080632,86.77655605808832L4.13387524681184,86.54193031519753L4.015883052442177,86.07123345096625L3.67209520610254,86.19350554409903L3.3394597160890953,85.80780131919164L3.1776343316571456,85.41884404152188L2.900117300263446,85.16114470884531L2.9371328505835663,85.04120056148531L2.3432566335357023,84.88910597184622L1.7922412146194802,84.49875825530944L1.586659450927982,84.2397214763896L1.5082538890071646,83.92342209226445L1.1994243890774214,84.18286441722557L0.5906839126669183,84.39291522134408L0.516965820919495,84.59186768143081L0.05714308191636519,84.72392512754595L-0.4685136870070892,84.76145307346269L-0.9728849523667122,83.79309125719556L-1.0373374372891249,83.20149003369443L-1.1459253595949122,82.96147355198264L-0.12052814186381511,81.20213834451715L0.018741464926051776,80.50819882271571L0.13520689428037258,80.34549551771488L0.0008214429346935503,79.42487566233103L-0.18565229572163844,78.75029861268376L0.17464599196159725,78.60683611445893L0.5543841539426921,77.86077212312557L0.31154533552080466,77.7901877109507L0.21944858645338172,77.87162500992963L-0.6090545713495885,77.39862657188314L-0.6945224169201083,77.47972613371712L-1.0368122989223139,77.25898711674017L-1.1998674262636086,76.94782378341188L-2.0662154347560318,77.56925441688873L-2.377129852301323,77.59762709435381L-2.6529434511021464,76.45770425231967L-2.7813378622745404,76.39214529891251L-2.6290111566572705,76.08768912692722L-2.8972169142382427,75.64624233259019L-3.2963735923628974,75.7805090885904L-3.5448455925888993,75.57906046517746L-3.7639120797553005,75.25072640077451L-3.9873327831567167,75.29864063727291L-4.920233572197503,73.73272767918934L-5.322949492538783,73.57074892899436L-5.391974520504846,73.9046530260639L-6.1043032145094,73.70600116000969L-6.0597743231890036,73.2721284156014L-6.405483544167737,73.23493883160154L-6.959167468677379,72.71694089280572L-7.347500553841883,71.96114943700559L-7.789555259532335,71.73861488022158L-8.657904430639519,71.86110706373256L-8.690320350212005,72.07324480118405L-9.055456503529967,72.2155663689573L-9.242751134820992,71.58174759911162L-9.514589730410535,71.03195684983984L-9.668798971684737,71.02567450561764L-10.050222529285747,70.81444740146435L-10.668577677619624,69.80559369094226L-10.852645162759927,69.32584341776965L-11.225221214832573,69.01045015895761L-11.323381827732192,68.79139058765031L-11.593081037251068,68.55734138433945L-12.676267974797838,67.85775134140385L-13.59059094595591,66.67160906005302L-13.438277437927582,66.36920079052834L-13.537918220586334,66.30456778744337L-13.056034159837054,65.45869463956842L-12.665300934096877,64.97951031798038L-12.71659134932861,64.91952294688963L-12.460625895336307,64.52953741900637L-12.894446169443881,63.83373298704464L-13.494760511238155,63.31085521580644L-13.172197792567658,62.99687377513692L-13.234142488113775,62.87230222285143L-13.321202054486093,62.77319810827976L-13.843214980679022,63.18228569270104L-14.148248702989122,62.64846658200986L-14.39271075542706,62.847318548003386L-14.704692545516991,63.26934300157154L-14.998682211897176,63.396053208352896L-15.27793508233799,63.12146879588545L-15.462976589030859,63.21582034367748L-15.675139482195164,62.84596179778782L-15.62586478283447,62.551369295979384L-15.456431180395384,62.34444054790947L-15.782327158686257,62.053036609706396L-15.906185100670882,61.760460513041835L-15.933982835012102,61.41929658328627L-16.790335898732792,60.972925586949714L-17.4561930131199,60.21952840041922L-17.68465962839673,59.81669969230279L-17.79649741111234,59.34484538080687L-17.739840307684744,58.60325354795532L-18.041165366498717,57.60326673345662L-17.72607306247187,57.50909549435164L-17.531490884256982,57.27657087425541L-17.068044235887783,57.07547876958961L-16.21991047810434,56.865847103792476L-15.732665782247295,57.337002701940946L-14.903214013649404,57.500194323836695L-14.203646892521647,58.43551726160149L-14.183501574870661,58.72407205237141L-14.329122140837399,58.844229604059365L-13.99516560205825,59.21997968968208L-13.713584253576073,59.218817565642894L-13.495749824924815,58.89490435434345L-13.612631081007976,58.82391122432091L-13.41628269531202,57.85280353740745L-12.981670191428975,57.74271843212409L-13.095909097607091,56.995704516280966L-12.278316978161001,56.70830676544938L-12.423111692783095,56.42876318785784L-12.123499203249821,56.3138242160494L-11.315102198760997,54.60298064339622L-11.763147226701676,54.754410206209286L-11.87997609999934,54.04839833182814L-12.034988716997077,53.849013203547656L-12.64832809278937,53.40604318885198L-14.633079488998646,54.25084691916527L-14.354596425168893,53.28464792729028L-14.349269911321471,52.931829221250155L-14.460865401057163,52.9160626028206L-14.368081227212315,52.577876373650724L-14.445164559874456,52.39606237223779L-14.435744493101993,52.1202743453141L-14.117156036860706,51.318413358127145L-14.165862202920835,50.85492252789663L-13.859444932681072,50.32172487078242L-13.924370437384368,50.18752956862227L-13.868483985833109,50.01548233067297L-13.991530262343758,49.92061675419609L-14.021331616877433,49.76763461518931L-14.197382090764677,49.80843919059225L-14.262105504951478,49.58144481659474L-14.65281973906599,49.62213668242839L-14.985568312649775,49.56558212731579L-15.133344772259306,49.6734707012165L-15.281939166878601,49.069390971133544L-15.742234114473376,48.521577948356935L-18.04708889634503,48.97551655195457L-18.654643074457226,47.793797360151075L-19.156469044699406,47.73383523497796L-20.02567510264521,47.33616057002837L-20.176524668020193,46.63404120664745L-20.052013947609794,45.810735562272384L-20.18547852342772,45.74786431200846L-20.61737588118035,45.85027806638391L-20.96300203724377,45.71490423189425L-21.43496794032376,45.22575235018667L-22.020896838780118,45.449301431122876L-22.423111089111444,44.36823117449421L-22.39822729670459,44.24848475576255L-22.609307976589434,43.54947505871314L-22.6395361051716,43.25629594891143L-22.394990718250938,42.511148062112625L-22.201817899750495,42.511522414484716L-22.09185000701609,42.3276945822945L-21.638307666323954,42.022844788261864L-21.730306328104234,41.88039181343811L-20.667917841912413,41.001920368327774L-20.36550993636365,41.17593093932919L-19.969028770944988,41.243983587201L-19.647927137101078,40.84964351873714L-19.306517321248066,40.74424734625245L-19.129130088301054,40.546173039219866L-19.38177345498775,40.14887570646533L-19.687001154550217,40.39010107148533L-19.97385589583064,40.074417231715415L-20.098224678322822,39.59768985284791L-20.046766474235028,39.343525489437525L-20.276150497953722,38.97637765372019L-21.696534084705036,37.573554262100515L-21.874495471706723,37.31239691651899L-21.86594369098475,37.067750713549685L-22.266240953065562,36.73713538038646L-22.51866728419145,36.98940782855425L-23.01921787732931,36.60305754881301L-23.137759303778466,36.31098757897962L-24.808766634108906,36.287922010116745L-25.11749071327563,35.918913396639255L-25.29675917499958,35.858527439108L-25.848847789702404,35.36865264383596L-26.048721788098646,35.32873844090136L-26.656997222266227,34.870948251529626L-27.495665914737856,33.72199172510773L-29.25559147499098,32.265306848395994L-31.53837583959512,31.933056362069692L-32.37266676863419,31.185427048079873L-33.04666284803193,30.27669122313455L-34.13008750990025,29.26202954722976L-34.609377293171974,28.482756849043653L-35.14356416719761,28.420229754390675L-35.32247865192903,27.972803357815792L-35.642998402841386,28.331614238779366L-36.88455265364723,28.96382885640378L-37.149774477281426,28.659117073417292L-37.57610827917938,28.53992696502064L-37.727869909892206,28.14910159171086L-38.714964009821415,27.74883068860254L-39.0680319035755,27.488894634736425L-39.52121903951388,27.881504169743494L-39.99895120546603,27.48103649377299L-39.9736061236938,27.335800842898607L-40.309795812086804,27.227342464413596L-40.25711532793275,27.093966312699195L-40.777991354579626,26.52267548958116L-40.5429942905937,26.277322572203047L-41.514151391804944,25.321696010421874L-41.80430141239117,25.270592052547727L-42.05001011615309,25.504234740519678L-43.030936230340785,25.273409852481564L-43.57823726973061,26.153335282473563L-44.048105764996535,26.73127144443606L-44.443128630491856,26.961415925330584L-45.12927231886101,27.597405548314782L-45.97007968108892,28.093171701901156L-46.19040618932195,27.937659576571605L-47.199777250780244,28.45848063766971L-47.749456652857134,28.59574780361436L-48.509535607777934,28.50773011588535L-48.97786860582141,28.243673907913035L-50.10539212820754,28.014272265558247L-50.044043875941725,28.29150032792859L-50.16180419465741,28.47233592854718L-50.959474551181984,28.57530467525612L-51.13980069222089,28.026527615140367L-51.4369943343911,28.019076001999565L-51.42918597830521,27.900070858730032L-51.59744596216365,27.868419257363712L-51.5892172608917,27.369484602517332L-52.343489300004194,27.12890309935392L-52.22787149997953,26.39398103653366L-52.271450230655546,24.283609875583352L-52.03800123076098,22.033804898479502L-52.346857096331405,20.099908700593005L-52.267291523915446,18.204343045485075L-52.60649462787501,16.462914125129828L-53.31115037315294,14.150871015979646L-53.987143964792494,11.536395071831066L-54.10440276097984,10.525413087418201L-53.94943769599354,10.058695985153463L-53.47489722990349,9.25888530749944L-53.02856493387799,8.773249136747836L-52.22607414490517,8.08818165426419L-51.661084137249645,7.174163013041834L-50.427480178981796,5.897677599601593L-50.079955358861525,5.19701532532963L-49.65303591167117,5.133193129993742L-49.17098878961065,5.630661890550982L-48.49122272763839,5.972093543690789L-48.08797392584415,5.921860846727213L-47.66060280077818,6.180864343221401L-47.127177317431006,6.005653373325913L-46.675791361704114,6.082173203178172L-45.882602897235756,5.872977987042759L-45.25235203903458,6.16737837906112L-44.69510006294877,6.279254464983751L-44.14534772461161,6.473975669059655L-43.987525299056415,6.661485983557213L-44.09911324456198,7.307525200356395L-43.69129894252819,7.12240930839107L-43.39496564252772,7.105892635823693L-42.95634386193569,6.647641760564511L-42.33044154382537,6.384980233944589L-42.32078535795017,6.122687501498149L-41.310523955092776,5.773246244501934L-40.711854666371664,6.198076086648143L-39.9049216214396,6.4998828650022915L-39.815346721705055,6.897225819577216L-39.164156494125564,6.82963172215932L-38.90829486198686,7.3946696779185L-38.331495570653715,7.556614829829414L-37.990426272347804,7.123344694800835L-37.78077934436851,7.332284996153248L-37.964364778087884,7.635561934685029L-37.695136981925316,8.0669311130805L-37.814647658514104,8.298639546257618L-37.403521092362325,8.612740675102032L-36.1489820211209,7.608105246519699L-35.67159234609653,7.412147520157305L-35.49579870257617,7.092263266717055L-34.902777794403164,7.374640508462107L-34.74393318846501,7.0096546572458465L-34.11178610826187,7.212367484560673L-33.203657461016064,7.734363861927704L-32.63683357182322,8.202430828456272L-32.315698797436426,8.596747090361532L-31.988358576232486,9.371129996408854L-31.64527693932905,9.85871392252011L-31.36140861687477,10.102404953198857L-30.171341276175554,10.705949049843184L-29.579368202935257,10.574257331323679L-29.268749716599586,10.777753834261603L-29.043247316458974,10.259089513527215L-27.825659771103346,9.456122706282258L-27.47780278690493,9.41051547105053L-27.200761359270246,9.707978364634982L-26.775077726756308,9.493397255824675L-26.539972642970042,9.5072561968027L-26.633102730304927,10.018697059616898L-26.496274897423973,10.58301954489798L-26.551383319941806,11.082658905956123L-26.32815609311774,11.458125392940929L-26.10186568609174,11.533030480983143L-25.72826422985827,11.115426351378119L-25.14476364496295,11.318719995149877L-24.745208264512485,11.023283048201847L-24.277677559217636,10.285661671901835L-22.416260215333068,8.331345161972422L-21.94698152840101,8.610345680544924L-21.32701925877086,8.817663004414499L-20.502031921789694,8.928212792277918L-19.589412205295957,9.26969497214668L-19.30084055911925,8.914868117379228L-18.71580599980689,8.783139329752885L-18.37613569249993,8.232785487942238L-17.981523715182675,8.03412727770774L-17.76744455295443,8.73983693529226L-17.154658280524018,8.813543886535626L-16.616078990662345,9.22556358575821L-16.418010441508613,9.623615419648559L-16.192784440504056,9.680212994424437L-15.481225639621925,10.838881834135464L-15.283561587506028,11.19409735201225L-15.147005823945392,12.26231630132861L-15.22990061660903,12.974032210504447L-14.389870260803264,13.692050082338028L-13.980916706116659,13.75254435160059L-13.711007948141742,14.241887944930568L-13.209512808969066,14.362851892015897L-12.505668801221418,13.882109303594916L-11.066792431766544,14.100963747781861L-10.875192352673594,14.299052998178013L-10.207892458448669,13.810694921543472L-10.041397274557767,13.625049835813115L-9.891048892279287,13.270721882558064L-9.87592020738066,13.008338204263055L-10.123119046581223,12.21489370496056L-10.588156654602244,11.413601927957643L-9.973632059097326,10.961705781599449L-9.605005007844056,11.095192231679903L-9.431843800907018,11.317287807616594L-9.121585889370408,11.223733657747289L-8.336731733536453,11.233568672047113L-8.176749800985363,11.152422550967458L-8.052906323015804,11.027165853702172L-7.984988552898358,10.803127552286242L-8.01560349544684,10.451064843862696L-8.570428266205454,9.28241883996452L-8.22542256732595,9.117636823992143L-7.911459602388277,9.093299924905295L-7.407056166827715,8.742750479275855L-7.083003109645915,8.61765722490236L-6.836015508160926,8.635442993123434L-6.302120325300848,7.820691090744731L-5.971575917981227,7.672141952900347L-5.40290074570953,7.66526727380915L-4.5178478395168895,8.119850605771717L-4.475137761046199,8.788456874644908L-3.9778943736403107,8.446128062927528L-3.671977388084997,8.414607470545889L-3.2549993610650745,8.007120998472601L-2.7061812283698146,7.11828114347918L-2.67151974550211,6.440398713002651L-2.8904917992431365,5.625558644867851L-2.534224232958195,5.182743473031223L-2.164112278889206,5.652838536276249L-1.6322150695548316,6.584545315668947L-1.532580075014721,7.122393777433899L-0.5017410911848401,7.447910736365884L1.1777624517276308,6.611096860766338L2.2291970678895723,6.293411310400188L2.8781748975711707,5.915005042466873L3.154117162549028,6.344081935181748L3.113796616396712,7.058578094722179L3.5145560493338053,7.7524927141985245L3.508994359956887,8.251893304339319L3.7474385099490064,9.218268024897043L4.0940399054507,9.473994171052254L4.642376942776082,8.771993416696205L4.65201481581812,8.303900328246527L5.421384541243924,8.13796088707386L5.755019160216079,7.861404852968917L5.919122171173285,7.576682757955496L6.051122353031133,7.044052310371626L6.445555885114345,6.492953820417824L6.8155501340986575,5.419684777119983L7.259296353189484,4.604260637974221L7.517579410089411,4.457604206270844L9.028905881192031,3.957810053412686L9.741858329585284,3.8168155871680938L10.706896104365342,3.076351566989615L11.740152671920214,2.72265087942651L11.93151403313027,3.199492963911325L12.465364606799312,3.411189578984704L13.100711216833133,3.5019965539504483L14.033503459355188,3.3924732994346414L15.218627877025483,2.733369405261328L15.688302271692464,2.4160865968024154L15.960809593396789,2.1185783572545915L17.032944260535032,0.7161346129269077L17.54237793630614,0.3701834321473143L17.924469500388795,0.4210222200908902L19.402157647837612,0.05253880412965373L20.96703544179627,-1.5614795854144177L21.43474521429107,-2.547734183694047L22.03339555030334,-2.951443489977464L22.901975919207416,-4.287814165752934L23.3771260548408,-4.360314299297897L23.504953897615678,-4.752347658912186L24.21500232704807,-5.059783082262584L25.560756972455692,-5.809049889046946L26.664486181944312,-4.918732840957091L27.10691575649048,-4.291049083491089L27.449410617136664,-4.841736680435133L27.832341887156872,-4.485067454061209L29.396813238485038,-3.3679625525765005L29.520946627469584,-3.6918173914109502L29.857216725739136,-3.9802117718645604L30.200430646897985,-4.567217436055216L30.25417063527425,-4.945777458759039L30.043160036649624,-5.9804684374885255L30.575229784223893,-6.077376974621075L30.74773435530369,-5.622774867715634L31.24430863638804,-5.167378982845548L32.63565727617561,-8.033106021966887L33.19898388423826,-9.358886571777475L34.80981753655033,-10.295640410568012L35.53915228720962,-10.222211578977294L35.686870749526406,-9.48234925196266L35.86320381091173,-9.1927069511421L36.13050839280686,-8.92212626370383L36.912458255178535,-8.46596459392822L37.10064606873743,-8.27879077050784L37.16978457668415,-9.628484305569145L37.63101962045312,-10.235909684775834L37.83037040549152,-10.26515892280986L38.88913711894861,-9.655494810684104L39.04879769336003,-10.0022564158171L38.39715173833315,-10.447685470871875L38.339998506682605,-10.829999603038232L38.06653282832713,-10.924348567919878L38.234445114566824,-11.447186564442745L38.493521845726946,-11.590978269068728L38.72612856780074,-11.534511967982326L39.176390234172004,-11.578533166457419L38.996151398292795,-12.047624032540625L39.17489665532253,-12.35001342193027L39.46280425503778,-12.449113259033766L40.06332924694698,-12.092879137366253L40.60968392066388,-11.903802383907532L41.770186654950294,-11.771533798773817L42.58904992243242,-12.285154582908945L43.40236931500658,-12.436220215849971L44.4081306071746,-12.451417687465437L44.715400366078484,-12.103434008766271L44.98949561472182,-12.008708581195606L45.16987028579342,-11.623709633504404L45.24194906531943,-11.248880184808513L45.567389148533266,-11.36512715095705L45.8303168334005,-11.312557628336435L46.08208129130185,-11.858574483410848L45.582557074755414,-12.081704375174013L45.632200132997696,-12.410702232318727L45.44430874175441,-12.633200614785892L45.50112149009601,-12.890800692912308L46.53062069267003,-12.462189642321391L46.77882792958894,-12.265779495292009L47.26118961659972,-12.740888447930047L46.82851738835711,-13.132328518398936L46.69334328610307,-13.375674363163853L46.61193254452951,-14.157910758674916L47.02713801619029,-14.328563827471953L47.148441893092695,-14.572276409473488L47.13370673110899,-14.72686861915463L46.84872863234227,-15.215346213615703L46.442676810643206,-15.644962119455158L46.4041773949084,-15.869568545025686L46.48444960937513,-16.120645123422946L46.3862085772505,-16.321349784897393L47.80938576068411,-17.371118068464057L48.54984333962102,-17.625517020996995L49.15243023459152,-17.4265815070994L49.04505730966457,-16.59129980135731L49.26290590212852,-15.68403385203601L49.28949151474853,-14.984409207490899L49.63813410908665,-14.729508171285488L50.28503902006628,-15.115126612488893L50.26977910406231,-15.432297517383631L50.93683724687344,-16.255723008287532L51.178893117265034,-15.801450950793878L51.89417600744537,-16.226722836609042L52.328605349293866,-16.15060260428072L52.66610900544083,-16.58188642260029L53.29158166838624,-16.96393910679035L53.70640526243983,-17.095551756729037L53.77168910512114,-17.501597471873538L54.35120459395216,-17.631407317323465L54.448483257792304,-17.267154611983642L54.22510145869069,-16.77585563633329L55.94614678165044,-17.02351974013436L56.18259136733559,-16.83583516595354L56.31900204408953,-17.325359079010013L56.64382237129962,-17.518098526545145L56.69095454762237,-16.731555284843125L56.041194776403245,-15.994187748101467L55.973048820477516,-15.799199694225535L56.169748951750535,-14.912453148215718L56.13062341787395,-14.763840030440406L55.67411434885139,-14.16274037709627L55.671473617223,-13.547390418832947L56.235924758199644,-14.142244194807063L56.75184062384824,-14.385344464451919L57.24357694008677,-15.289750649275447L57.985931880780754,-15.861560944684243L58.29993157794024,-16.281847121141254L58.64855548452442,-16.43197193693959L59.57134779393232,-15.905667061784698L60.285078811884205,-15.602337569900556L61.615989040876,-16.832945047133762L62.711961761352995,-18.3290859610006L63.00472712861165,-18.588117406605306L65.37226086017608,-17.343304447902483L66.948376823417,-16.62158870222629L67.89604747537419,-16.449904549292114Z" fill="#000"></path></g></g></svg>